<svg width="200" height="70" viewBox="0 0 200 70" fill="none" xmlns="http://www.w3.org/2000/svg">
<path d="M0 52.1429H60V60C60 62.7614 57.7614 65 55 65H5C2.23858 65 0 62.7614 0 60V52.1429Z" fill="#FF1E90"/>
<path d="M0 30.7143H60V52.1428H0V30.7143Z" fill="#1E90FF"/>
<path d="M0 10C0 7.23857 2.23858 5 5 5H55C57.7614 5 60 7.23858 60 10V30.7143H0V10Z" fill="#1EFF8D"/>
<path d="M65 55H85V70H70C67.2386 70 65 67.7614 65 65V55Z" fill="#8D1EFF"/>
<path d="M110 55H135V65C135 67.7614 132.761 70 130 70H110V55Z" fill="#FF1E90"/>
<path d="M85 55H110V70H85V55Z" fill="#90FF1E"/>
<path d="M65 30H135V55H65V30Z" fill="#1E90FF"/>
<path d="M65 5C65 2.23858 67.2386 0 70 0H95V30H65V5Z" fill="#1EFF8D"/>
<path d="M95 0H130C132.761 0 135 2.23858 135 5V30H95V0Z" fill="#FF8D1E"/>
<path d="M140 30.7143H178.571V65H145C142.239 65 140 62.7614 140 60V30.7143Z" fill="#1E90FF"/>
<path d="M178.571 30.7143H200V60C200 62.7614 197.761 65 195 65H178.571V30.7143Z" fill="#FF1E90"/>
<rect x="178.571" y="30.7143" width="21.4286" height="4.28572" fill="#AC1160"/>
<rect x="178.571" y="30.7143" width="8.57143" height="4.28572" fill="#EB1D85"/>
<rect x="140" y="30.7143" width="38.5714" height="4.28572" fill="#1863AD"/>
<rect x="140" y="30.7143" width="8.57143" height="4.28572" fill="#1A84EC"/>
<rect x="148.571" y="30.7143" width="8.57143" height="4.28572" fill="#1973CB"/>
<path d="M140 10C140 7.23858 142.239 5 145 5H165.714V30.7143H140V10Z" fill="#1EFF8D"/>
<path d="M140 9.28572C140 6.91878 141.919 5 144.286 5H165.714V9.28572H140V9.28572Z" fill="#1BCA71"/>
<path d="M140 9.28572C140 6.91878 141.919 5 144.286 5H148.571V9.28572H140V9.28572Z" fill="#1DF387"/>
<path d="M165.714 5H195C197.761 5 200 7.23858 200 10V30.7143H165.714V5Z" fill="#FF8D1E"/>
<path d="M165.714 5H195.714C198.081 5 200 6.91878 200 9.28572V9.28572H165.714V5Z" fill="#BA6817"/>
<rect x="165.714" y="5" width="8.57143" height="4.28572" fill="#EF841B"/>
<rect x="174.286" y="5" width="8.57143" height="4.28572" fill="#DC7A1B"/>
</svg>
