<svg xmlns="http://www.w3.org/2000/svg" viewBox="0 0 730.3 174.0" width="730" height="174" role="img" aria-label="Dockview">
<title>Dockview</title>
<g transform="translate(12.00,12.00) scale(0.7500)"><path d="M28 8 H74 A10 10 0 0 1 84 18 V182 A10 10 0 0 1 74 192 H28 A20 20 0 0 1 8 172 V28 A20 20 0 0 1 28 8 Z" fill="#06C0D6"/><path d="M112 8 H148 A44 44 0 0 1 192 52 V76 A12 12 0 0 1 180 88 H112 A12 12 0 0 1 100 76 V20 A12 12 0 0 1 112 8 Z" fill="#2E74F0"/><rect x="100" y="104" width="40" height="88" rx="12" fill="#F24BA0"/><path d="M164 104 H180 A12 12 0 0 1 192 116 V148 A44 44 0 0 1 148 192 H164 A12 12 0 0 1 152 180 V116 A12 12 0 0 1 164 104 Z" fill="#A24FEE"/></g>
<path transform="translate(196.00,127.48) scale(0.11600,-0.11600)" d="M82 0V698H336Q427 698 495.0 659.0Q563 620 600.0 542.5Q637 465 637 349Q637 233 600.0 155.5Q563 78 495.0 39.0Q427 0 336 0ZM214 117H336Q385 117 421.0 136.5Q457 156 477.0 195.5Q497 235 497 294V404Q497 464 477.0 503.0Q457 542 421.0 561.5Q385 581 336 581H214ZM970 -12Q896 -12 841.5 21.5Q787 55 757.5 116.5Q728 178 728 262Q728 346 757.5 406.5Q787 467 841.5 500.5Q896 534 970 534Q1045 534 1099.5 500.5Q1154 467 1183.5 406.5Q1213 346 1213 262Q1213 178 1183.5 116.5Q1154 55 1099.5 21.5Q1045 -12 970 -12ZM970 91Q1021 91 1050.0 122.5Q1079 154 1079 213V310Q1079 369 1050.0 400.0Q1021 431 970 431Q921 431 891.5 400.0Q862 369 862 310V213Q862 154 891.5 122.5Q921 91 970 91ZM1532 -12Q1416 -12 1353.5 62.0Q1291 136 1291 262Q1291 387 1353.5 460.5Q1416 534 1532 534Q1611 534 1662.5 499.0Q1714 464 1737 402L1632 355Q1623 388 1598.0 409.5Q1573 431 1532 431Q1479 431 1452.0 397.5Q1425 364 1425 308V213Q1425 159 1452.0 125.0Q1479 91 1532 91Q1577 91 1602.5 114.5Q1628 138 1642 173L1740 126Q1715 57 1661.5 22.5Q1608 -12 1532 -12ZM1839 0V740H1967V400V294H1972L2041 388L2158 522H2303L2123 320L2322 0H2170L2036 234L1967 159V0ZM2665 0H2513L2339 522H2465L2538 297L2589 111H2596L2647 297L2718 522H2840ZM2989 598Q2950 598 2932.0 616.5Q2914 635 2914 662V682Q2914 710 2932.0 728.0Q2950 746 2989 746Q3028 746 3046.0 728.0Q3064 710 3064 682V662Q3064 635 3046.0 616.5Q3028 598 2989 598ZM2925 0V522H3053V0ZM3411 -12Q3334 -12 3279.0 21.5Q3224 55 3194.5 116.5Q3165 178 3165 262Q3165 344 3194.0 405.5Q3223 467 3277.0 500.5Q3331 534 3407 534Q3489 534 3541.5 498.0Q3594 462 3619.5 402.5Q3645 343 3645 271V229H3298V216Q3298 160 3330.0 125.0Q3362 90 3425 90Q3472 90 3503.0 110.5Q3534 131 3558 161L3627 84Q3595 41 3539.5 14.5Q3484 -12 3411 -12ZM3409 438Q3375 438 3350.0 422.5Q3325 407 3311.5 379.5Q3298 352 3298 316V308H3512V317Q3512 354 3500.0 380.5Q3488 407 3465.0 422.5Q3442 438 3409 438ZM3851 0 3707 522H3830L3883 307L3924 128H3928L3976 307L4037 522H4153L4216 307L4265 128H4269L4310 307L4362 522H4481L4338 0H4200L4133 230L4094 372H4091L4053 230L3987 0Z" fill="#F5F5FA"/>
</svg>
