<svg width="70" height="70" viewBox="0 0 70 70" fill="none" xmlns="http://www.w3.org/2000/svg">
<path d="M0 55H70V65C70 67.7614 67.7614 70 65 70H5C2.23858 70 0 67.7614 0 65V55Z" fill="#FF1E90"/>
<path d="M0 5C0 2.23858 2.23858 0 5 0H65C67.7614 0 70 2.23858 70 5V50H0V5Z" fill="#1EFF8D"/>
<path d="M0 40H70V65C70 67.7614 67.7614 70 65 70H5C2.23858 70 0 67.7614 0 65V40Z" fill="#FF1E90"/>
<rect y="35" width="70" height="5" fill="#AC1160"/>
<path d="M0 30H70V35H0V30Z" fill="#1863AD"/>
<path d="M0 5C0 2.23858 2.23858 0 5 0H65C67.7614 0 70 2.23858 70 5V5H0V5Z" fill="#1BCA71"/>
</svg>
