<svg width="156" height="18" viewBox="0 0 156 18" fill="none" xmlns="http://www.w3.org/2000/svg">
<rect y="4" width="156" height="14" fill="#1C1C2A"/>
<rect y="4" width="30" height="14" fill="#10192C"/>
<rect x="31" y="4" width="30" height="14" fill="#10192C"/>
<rect x="62" y="4" width="30" height="14" fill="#000C18"/>
<rect x="30" y="4" width="1" height="14" fill="#2B2B4A"/>
<rect x="61" y="4" width="1" height="14" fill="#2B2B4A"/>
<rect x="92" y="4" width="1" height="14" fill="#2B2B4A"/>
<rect x="66" y="9" width="7" height="4" rx="2" fill="#777777"/>
<rect x="76" y="9" width="12" height="4" rx="2" fill="#777777"/>
<rect x="33" y="9" width="15" height="4" rx="2" fill="#282828"/>
<rect x="2" y="9" width="6" height="4" rx="2" fill="#282828"/>
<rect x="10" y="9" width="18" height="4" rx="2" fill="#282828"/>
<rect x="59" width="91" height="10" fill="#2B2B4A"/>
<rect x="60" y="1" width="89.1429" height="8" fill="#1C1C2A"/>
<rect x="60" y="1" width="17.1429" height="8" fill="#10192C"/>
<rect x="77.7142" y="1" width="17.1429" height="8" fill="#10192C"/>
<rect x="77.1428" y="1" width="0.571429" height="8" fill="#2B2B4A"/>
<rect x="94.8572" y="1" width="0.571429" height="8" fill="#2B2B4A"/>
<rect x="78.8572" y="3.85718" width="8.57143" height="2.28571" rx="1.14286" fill="white"/>
<rect x="89.1428" y="3.85718" width="2.85714" height="2.28571" rx="1.14286" fill="white"/>
<rect x="61.1428" y="3.85718" width="10.8571" height="2.28571" rx="1.14286" fill="#777777"/>
<path fill-rule="evenodd" clip-rule="evenodd" d="M117.344 8.26544C117.52 8.14263 117.51 7.87986 117.327 7.76998L113.18 5.29049C112.961 5.15953 112.691 5.34916 112.739 5.59974L113.651 10.344C113.691 10.5542 113.935 10.653 114.11 10.5302L114.772 10.067C114.867 10.0002 114.914 9.88362 114.892 9.76929L114.602 8.26123C114.554 8.01064 114.825 7.82101 115.044 7.95197L116.362 8.74015C116.462 8.79989 116.588 8.79538 116.683 8.7286L117.344 8.26544Z" fill="white"/>
<rect x="116.5" y="9.5" width="4" height="2" stroke="white" stroke-dasharray="0.25 0.25"/>
</svg>
