<svg width="156" height="18" viewBox="0 0 156 18" fill="none" xmlns="http://www.w3.org/2000/svg">
<rect y="4" width="156" height="14" fill="#1C1C2A"/>
<rect y="4" width="30" height="14" fill="#10192C"/>
<rect x="31" y="4" width="30" height="14" fill="#10192C"/>
<rect x="62" y="4" width="30" height="14" fill="#000C18"/>
<rect x="30" y="4" width="1" height="14" fill="#2B2B4A"/>
<rect x="61" y="4" width="1" height="14" fill="#2B2B4A"/>
<rect x="92" y="4" width="1" height="14" fill="#2B2B4A"/>
<rect x="66" y="9" width="7" height="4" rx="2" fill="white"/>
<rect x="76" y="9" width="12" height="4" rx="2" fill="white"/>
<rect x="33" y="9" width="15" height="4" rx="2" fill="#777777"/>
<rect x="2" y="9" width="6" height="4" rx="2" fill="#777777"/>
<rect x="10" y="9" width="18" height="4" rx="2" fill="#777777"/>
<path d="M31 4H61V18H31V4Z" fill="#E1E1E1" fill-opacity="0.25"/>
<rect x="49.5" y="0.5" width="29" height="13" fill="#000C18" stroke="#2B2B4A"/>
<rect x="53" y="5" width="7" height="4" rx="2" fill="white"/>
<rect x="64" y="5" width="12" height="4" rx="2" fill="white"/>
<path fill-rule="evenodd" clip-rule="evenodd" d="M66.3445 13.2654C66.5198 13.1426 66.5104 12.8799 66.3266 12.77L62.1804 10.2905C61.9614 10.1595 61.6906 10.3492 61.7388 10.5997L62.6506 15.344C62.691 15.5542 62.9347 15.653 63.1101 15.5302L63.7716 15.067C63.8669 15.0002 63.9142 14.8836 63.8922 14.7693L63.6024 13.2612C63.5542 13.0106 63.825 12.821 64.044 12.952L65.362 13.7401C65.4619 13.7999 65.5876 13.7954 65.683 13.7286L66.3445 13.2654Z" fill="white"/>
<rect x="65.5" y="14.5" width="4" height="2" stroke="white" stroke-dasharray="0.25 0.25"/>
</svg>
