<svg xmlns="http://www.w3.org/2000/svg" width="156" height="18" fill="none" viewBox="0 0 156 18"><rect width="156" height="14" y="4" fill="#1C1C2A"/><rect width="30" height="14" y="4" fill="#10192C"/><rect width="30" height="14" x="31" y="4" fill="#10192C"/><rect width="30" height="14" x="62" y="4" fill="#000C18"/><rect width="1" height="14" x="30" y="4" fill="#2B2B4A"/><rect width="1" height="14" x="61" y="4" fill="#2B2B4A"/><rect width="1" height="14" x="92" y="4" fill="#2B2B4A"/><rect width="7" height="4" x="66" y="9" fill="#777" rx="2"/><rect width="12" height="4" x="76" y="9" fill="#777" rx="2"/><rect width="15" height="4" x="33" y="9" fill="#282828" rx="2"/><rect width="6" height="4" x="2" y="9" fill="#282828" rx="2"/><rect width="18" height="4" x="10" y="9" fill="#282828" rx="2"/><rect width="91" height="10" x="59" fill="#2B2B4A"/><rect width="89.143" height="8" x="60" y="1" fill="#1C1C2A"/><rect width="17.143" height="8" x="60" y="1" fill="#10192C"/><rect width="17.143" height="8" x="77.714" y="1" fill="#10192C"/><rect width=".571" height="8" x="77.143" y="1" fill="#2B2B4A"/><rect width=".571" height="8" x="94.857" y="1" fill="#2B2B4A"/><rect width="8.571" height="2.286" x="78.857" y="3.857" fill="#fff" rx="1.143"/><rect width="2.857" height="2.286" x="89.143" y="3.857" fill="#fff" rx="1.143"/><rect width="10.857" height="2.286" x="61.143" y="3.857" fill="#777" rx="1.143"/><path fill="#fff" fill-rule="evenodd" d="M117.344 8.26544C117.52 8.14263 117.51 7.87986 117.327 7.76998L113.18 5.29049C112.961 5.15953 112.691 5.34916 112.739 5.59974L113.651 10.344C113.691 10.5542 113.935 10.653 114.11 10.5302L114.772 10.067C114.867 10.0002 114.914 9.88362 114.892 9.76929L114.602 8.26123C114.554 8.01064 114.825 7.82101 115.044 7.95197L116.362 8.74015C116.462 8.79989 116.588 8.79538 116.683 8.7286L117.344 8.26544Z" clip-rule="evenodd"/><rect width="4" height="2" x="116.5" y="9.5" stroke="#fff" stroke-dasharray=".25 .25"/></svg>