<svg xmlns="http://www.w3.org/2000/svg" width="156" height="18" fill="none" viewBox="0 0 156 18"><rect width="156" height="14" y="4" fill="#1C1C2A"/><rect width="30" height="14" y="4" fill="#10192C"/><rect width="30" height="14" x="31" y="4" fill="#10192C"/><rect width="30" height="14" x="62" y="4" fill="#000C18"/><rect width="1" height="14" x="30" y="4" fill="#2B2B4A"/><rect width="1" height="14" x="61" y="4" fill="#2B2B4A"/><rect width="1" height="14" x="92" y="4" fill="#2B2B4A"/><rect width="7" height="4" x="66" y="9" fill="#fff" rx="2"/><rect width="12" height="4" x="76" y="9" fill="#fff" rx="2"/><rect width="15" height="4" x="33" y="9" fill="#777" rx="2"/><rect width="6" height="4" x="2" y="9" fill="#777" rx="2"/><rect width="18" height="4" x="10" y="9" fill="#777" rx="2"/><rect width="63" height="14" x="93" y="4" fill="#E1E1E1" fill-opacity=".25"/><rect width="29" height="13" x="111.5" y=".5" fill="#000C18" stroke="#2B2B4A"/><rect width="7" height="4" x="115" y="5" fill="#fff" rx="2"/><rect width="12" height="4" x="126" y="5" fill="#fff" rx="2"/><path fill="#fff" fill-rule="evenodd" d="M128.344 13.2654C128.52 13.1426 128.51 12.8799 128.327 12.77L124.18 10.2905C123.961 10.1595 123.691 10.3492 123.739 10.5997L124.651 15.344C124.691 15.5542 124.935 15.653 125.11 15.5302L125.772 15.067C125.867 15.0002 125.914 14.8836 125.892 14.7693L125.602 13.2612C125.554 13.0106 125.825 12.821 126.044 12.952L127.362 13.7401C127.462 13.7999 127.588 13.7954 127.683 13.7286L128.344 13.2654Z" clip-rule="evenodd"/><rect width="4" height="2" x="127.5" y="14.5" stroke="#fff" stroke-dasharray=".25 .25"/></svg>