<svg width="211" height="91" viewBox="0 0 211 91" fill="none" xmlns="http://www.w3.org/2000/svg">
<rect width="211" height="91" rx="5" fill="white"/>
<rect x="10" y="56" width="181" height="25" rx="2" fill="#252525"/>
<path d="M178.249 75.1261V69.358L173.288 66.504V69.7921L175.561 71.1094V73.582L178.249 75.1261ZM179.537 75.16L182.275 73.5828V71.0516L184.562 69.7263V66.4794L179.537 69.3806V75.16ZM183.902 65.3732L181.26 63.8426L178.941 65.1883L176.605 63.8413L173.94 65.3923L178.913 68.2534L183.902 65.3732ZM172 73.0227V65.0305L178.925 61L185.851 65.0136V73.0101L178.925 77L172 73.0227Z" fill="#F0FFA5"/>
<path d="M25.8239 68.9091C25.8239 69.983 25.63 70.911 25.2422 71.6932C24.8544 72.4754 24.3224 73.0786 23.6463 73.5028C22.9702 73.9271 22.1979 74.1392 21.3295 74.1392C20.4612 74.1392 19.6889 73.9271 19.0128 73.5028C18.3366 73.0786 17.8047 72.4754 17.4169 71.6932C17.0291 70.911 16.8352 69.983 16.8352 68.9091C16.8352 67.8352 17.0291 66.9072 17.4169 66.125C17.8047 65.3428 18.3366 64.7396 19.0128 64.3153C19.6889 63.8911 20.4612 63.679 21.3295 63.679C22.1979 63.679 22.9702 63.8911 23.6463 64.3153C24.3224 64.7396 24.8544 65.3428 25.2422 66.125C25.63 66.9072 25.8239 67.8352 25.8239 68.9091ZM24.6307 68.9091C24.6307 68.0275 24.4832 67.2834 24.1882 66.6768C23.8965 66.0703 23.5005 65.6113 23 65.2997C22.5028 64.9882 21.946 64.8324 21.3295 64.8324C20.7131 64.8324 20.1546 64.9882 19.6541 65.2997C19.157 65.6113 18.7609 66.0703 18.4659 66.6768C18.1742 67.2834 18.0284 68.0275 18.0284 68.9091C18.0284 69.7907 18.1742 70.5348 18.4659 71.1413C18.7609 71.7479 19.157 72.2069 19.6541 72.5185C20.1546 72.83 20.7131 72.9858 21.3295 72.9858C21.946 72.9858 22.5028 72.83 23 72.5185C23.5005 72.2069 23.8965 71.7479 24.1882 71.1413C24.4832 70.5348 24.6307 69.7907 24.6307 68.9091ZM27.7379 76.8636V66.3636H28.8714V67.5767H29.0107C29.0968 67.4441 29.2161 67.2751 29.3686 67.0696C29.5244 66.8608 29.7464 66.6752 30.0348 66.5128C30.3265 66.3471 30.7209 66.2642 31.218 66.2642C31.861 66.2642 32.4278 66.425 32.9183 66.7464C33.4089 67.0679 33.7917 67.5237 34.0668 68.1136C34.3419 68.7036 34.4794 69.3996 34.4794 70.2017C34.4794 71.0104 34.3419 71.7114 34.0668 72.3047C33.7917 72.8946 33.4105 73.352 32.9233 73.6768C32.4361 73.9983 31.8743 74.1591 31.2379 74.1591C30.7474 74.1591 30.3546 74.0779 30.0597 73.9155C29.7647 73.7498 29.5376 73.5625 29.3786 73.3537C29.2195 73.1416 29.0968 72.9659 29.0107 72.8267H28.9112V76.8636H27.7379ZM28.8913 70.1818C28.8913 70.7585 28.9759 71.2673 29.1449 71.7081C29.3139 72.1456 29.5608 72.4886 29.8857 72.7372C30.2105 72.9825 30.6082 73.1051 31.0788 73.1051C31.5694 73.1051 31.9787 72.9759 32.3068 72.7173C32.6383 72.4555 32.8868 72.1042 33.0526 71.6634C33.2216 71.2192 33.3061 70.7254 33.3061 70.1818C33.3061 69.6449 33.2232 69.161 33.0575 68.7301C32.8951 68.2959 32.6482 67.9529 32.3168 67.701C31.9886 67.4458 31.576 67.3182 31.0788 67.3182C30.6016 67.3182 30.2005 67.4392 29.8757 67.6811C29.5509 67.9197 29.3056 68.2545 29.1399 68.6854C28.9742 69.1129 28.8913 69.6117 28.8913 70.1818ZM39.4709 74.1591C38.7351 74.1591 38.1004 73.9967 37.5668 73.6719C37.0365 73.3438 36.6271 72.8864 36.3388 72.2997C36.0537 71.7098 35.9112 71.0237 35.9112 70.2415C35.9112 69.4593 36.0537 68.7699 36.3388 68.1733C36.6271 67.5734 37.0282 67.1061 37.5419 66.7713C38.0589 66.4332 38.6622 66.2642 39.3516 66.2642C39.7493 66.2642 40.142 66.3305 40.5298 66.4631C40.9176 66.5956 41.2706 66.8111 41.5888 67.1094C41.907 67.4044 42.1605 67.7955 42.3494 68.2827C42.5384 68.7699 42.6328 69.3698 42.6328 70.0824V70.5795H36.7464V69.5653H41.4396C41.4396 69.1345 41.3535 68.75 41.1811 68.4119C41.0121 68.0739 40.7701 67.8071 40.4553 67.6115C40.1437 67.416 39.7758 67.3182 39.3516 67.3182C38.8842 67.3182 38.4799 67.4342 38.1385 67.6662C37.8004 67.8949 37.5402 68.1932 37.358 68.5611C37.1757 68.929 37.0845 69.3234 37.0845 69.7443V70.4205C37.0845 70.9972 37.1839 71.486 37.3828 71.8871C37.585 72.2848 37.8651 72.5881 38.223 72.7969C38.581 73.0024 38.9969 73.1051 39.4709 73.1051C39.7791 73.1051 40.0575 73.062 40.3061 72.9759C40.558 72.8864 40.7751 72.7538 40.9574 72.5781C41.1397 72.3991 41.2805 72.1771 41.38 71.9119L42.5135 72.2301C42.3942 72.6146 42.1937 72.9527 41.9119 73.2443C41.6302 73.5327 41.2822 73.758 40.8679 73.9205C40.4536 74.0795 39.9879 74.1591 39.4709 74.1591ZM45.5909 69.4062V74H44.4176V66.3636H45.5511V67.5568H45.6506C45.8295 67.169 46.1013 66.8575 46.4659 66.6222C46.8305 66.3835 47.3011 66.2642 47.8778 66.2642C48.3949 66.2642 48.8473 66.3703 49.2351 66.5824C49.6229 66.7912 49.9245 67.1094 50.1399 67.5369C50.3554 67.9612 50.4631 68.4981 50.4631 69.1477V74H49.2898V69.2273C49.2898 68.6274 49.134 68.16 48.8224 67.8253C48.5109 67.4872 48.0833 67.3182 47.5398 67.3182C47.1652 67.3182 46.8305 67.3994 46.5355 67.5618C46.2438 67.7242 46.0135 67.9612 45.8445 68.2727C45.6754 68.5843 45.5909 68.9621 45.5909 69.4062ZM56.5446 74V66.3636H57.7179V74H56.5446ZM57.1412 65.0909C56.9125 65.0909 56.7153 65.013 56.5495 64.8572C56.3871 64.7015 56.3059 64.5142 56.3059 64.2955C56.3059 64.0767 56.3871 63.8894 56.5495 63.7337C56.7153 63.5779 56.9125 63.5 57.1412 63.5C57.3699 63.5 57.5654 63.5779 57.7278 63.7337C57.8935 63.8894 57.9764 64.0767 57.9764 64.2955C57.9764 64.5142 57.8935 64.7015 57.7278 64.8572C57.5654 65.013 57.3699 65.0909 57.1412 65.0909ZM61.0401 69.4062V74H59.8668V66.3636H61.0004V67.5568H61.0998C61.2788 67.169 61.5505 66.8575 61.9151 66.6222C62.2797 66.3835 62.7504 66.2642 63.3271 66.2642C63.8441 66.2642 64.2965 66.3703 64.6843 66.5824C65.0721 66.7912 65.3737 67.1094 65.5891 67.5369C65.8046 67.9612 65.9123 68.4981 65.9123 69.1477V74H64.739V69.2273C64.739 68.6274 64.5832 68.16 64.2717 67.8253C63.9601 67.4872 63.5326 67.3182 62.989 67.3182C62.6145 67.3182 62.2797 67.3994 61.9847 67.5618C61.6931 67.7242 61.4627 67.9612 61.2937 68.2727C61.1246 68.5843 61.0401 68.9621 61.0401 69.4062Z" fill="#F5F5F5"/>
<path d="M80.7885 67.3828H78.611C78.5712 67.1011 78.49 66.8509 78.3674 66.6321C78.2447 66.41 78.0873 66.2211 77.8951 66.0653C77.7028 65.9096 77.4808 65.7902 77.2289 65.7074C76.9803 65.6245 76.7102 65.5831 76.4185 65.5831C75.8915 65.5831 75.4325 65.714 75.0414 65.9759C74.6503 66.2344 74.347 66.6122 74.1316 67.1094C73.9161 67.6032 73.8084 68.2031 73.8084 68.9091C73.8084 69.6349 73.9161 70.2448 74.1316 70.7386C74.3503 71.2325 74.6552 71.6054 75.0463 71.8572C75.4374 72.1091 75.8899 72.2351 76.4036 72.2351C76.6919 72.2351 76.9587 72.197 77.204 72.1207C77.4526 72.0445 77.673 71.9335 77.8652 71.7876C78.0575 71.6385 78.2166 71.4579 78.3425 71.2457C78.4718 71.0336 78.5613 70.7917 78.611 70.5199L80.7885 70.5298C80.7322 70.9972 80.5913 71.4479 80.3659 71.8821C80.1439 72.313 79.8439 72.6991 79.4661 73.0405C79.0916 73.3786 78.6441 73.647 78.1238 73.8459C77.6067 74.0414 77.0217 74.1392 76.3688 74.1392C75.4606 74.1392 74.6486 73.9337 73.9327 73.5227C73.2201 73.1117 72.6567 72.5168 72.2424 71.7379C71.8314 70.959 71.6259 70.0161 71.6259 68.9091C71.6259 67.7988 71.8347 66.8542 72.2523 66.0753C72.6699 65.2964 73.2367 64.7031 73.9526 64.2955C74.6685 63.8845 75.4739 63.679 76.3688 63.679C76.9587 63.679 77.5056 63.7618 78.0094 63.9276C78.5165 64.0933 78.9656 64.3352 79.3567 64.6534C79.7478 64.9683 80.066 65.3544 80.3113 65.8118C80.5598 66.2692 80.7189 66.7929 80.7885 67.3828ZM85.7427 74.1491C84.9705 74.1491 84.3026 73.9851 83.7392 73.657C83.179 73.3255 82.7465 72.8648 82.4416 72.2749C82.1367 71.6816 81.9842 70.9938 81.9842 70.2116C81.9842 69.4228 82.1367 68.7334 82.4416 68.1435C82.7465 67.5502 83.179 67.0895 83.7392 66.7614C84.3026 66.4299 84.9705 66.2642 85.7427 66.2642C86.515 66.2642 87.1812 66.4299 87.7413 66.7614C88.3047 67.0895 88.7389 67.5502 89.0439 68.1435C89.3488 68.7334 89.5012 69.4228 89.5012 70.2116C89.5012 70.9938 89.3488 71.6816 89.0439 72.2749C88.7389 72.8648 88.3047 73.3255 87.7413 73.657C87.1812 73.9851 86.515 74.1491 85.7427 74.1491ZM85.7527 72.5085C86.104 72.5085 86.3973 72.4091 86.6326 72.2102C86.868 72.008 87.0453 71.733 87.1646 71.3849C87.2872 71.0369 87.3485 70.6409 87.3485 70.1967C87.3485 69.7526 87.2872 69.3565 87.1646 69.0085C87.0453 68.6605 86.868 68.3854 86.6326 68.1832C86.3973 67.9811 86.104 67.88 85.7527 67.88C85.398 67.88 85.0997 67.9811 84.8578 68.1832C84.6191 68.3854 84.4385 68.6605 84.3159 69.0085C84.1966 69.3565 84.1369 69.7526 84.1369 70.1967C84.1369 70.6409 84.1966 71.0369 84.3159 71.3849C84.4385 71.733 84.6191 72.008 84.8578 72.2102C85.0997 72.4091 85.398 72.5085 85.7527 72.5085ZM93.6923 74.1243C93.1123 74.1243 92.5869 73.9751 92.1163 73.6768C91.649 73.3752 91.2778 72.9328 91.0027 72.3494C90.7309 71.7628 90.595 71.0436 90.595 70.1918C90.595 69.3168 90.7359 68.5893 91.0176 68.0092C91.2993 67.4259 91.6738 66.9901 92.1412 66.7017C92.6118 66.41 93.1272 66.2642 93.6873 66.2642C94.1149 66.2642 94.4712 66.3371 94.7562 66.483C95.0446 66.6255 95.2766 66.8045 95.4522 67.0199C95.6312 67.232 95.7671 67.4408 95.8599 67.6463H95.9245V63.8182H98.0375V74H95.9494V72.777H95.8599C95.7605 72.9891 95.6196 73.1996 95.4373 73.4084C95.2583 73.6139 95.0247 73.7846 94.7363 73.9205C94.4513 74.0563 94.1033 74.1243 93.6923 74.1243ZM94.3635 72.4389C94.7048 72.4389 94.9932 72.3461 95.2285 72.1605C95.4672 71.9716 95.6494 71.7081 95.7754 71.37C95.9047 71.032 95.9693 70.6359 95.9693 70.1818C95.9693 69.7277 95.9063 69.3333 95.7804 68.9986C95.6544 68.6638 95.4721 68.4053 95.2335 68.223C94.9949 68.0407 94.7048 67.9496 94.3635 67.9496C94.0154 67.9496 93.7221 68.044 93.4835 68.233C93.2449 68.4219 93.0642 68.6837 92.9416 69.0185C92.819 69.3532 92.7576 69.741 92.7576 70.1818C92.7576 70.6259 92.819 71.0187 92.9416 71.3601C93.0675 71.6982 93.2482 71.9633 93.4835 72.1555C93.7221 72.3445 94.0154 72.4389 94.3635 72.4389ZM103.259 74.1491C102.473 74.1491 101.797 73.9901 101.23 73.6719C100.667 73.3504 100.233 72.8963 99.9279 72.3097C99.623 71.7197 99.4705 71.022 99.4705 70.2166C99.4705 69.4311 99.623 68.7417 99.9279 68.1484C100.233 67.5552 100.662 67.0928 101.216 66.7614C101.772 66.4299 102.425 66.2642 103.174 66.2642C103.678 66.2642 104.147 66.3454 104.581 66.5078C105.019 66.6669 105.4 66.9072 105.725 67.2287C106.053 67.5502 106.308 67.9545 106.49 68.4418C106.673 68.9257 106.764 69.4924 106.764 70.142V70.7237H100.316V69.4112H104.77C104.77 69.1063 104.704 68.8362 104.571 68.6009C104.439 68.3655 104.255 68.1816 104.02 68.049C103.788 67.9131 103.517 67.8452 103.209 67.8452C102.888 67.8452 102.603 67.9197 102.354 68.0689C102.109 68.2147 101.917 68.4119 101.777 68.6605C101.638 68.9058 101.567 69.1792 101.564 69.4808V70.7287C101.564 71.1065 101.633 71.433 101.772 71.7081C101.915 71.9832 102.115 72.1953 102.374 72.3445C102.632 72.4936 102.939 72.5682 103.294 72.5682C103.529 72.5682 103.744 72.535 103.94 72.4688C104.136 72.4025 104.303 72.303 104.442 72.1705C104.581 72.0379 104.687 71.8755 104.76 71.6832L106.719 71.8125C106.62 72.2831 106.416 72.6941 106.108 73.0455C105.803 73.3935 105.408 73.6652 104.924 73.8608C104.444 74.053 103.889 74.1491 103.259 74.1491ZM113.709 66.7464C113.669 66.3454 113.499 66.0339 113.197 65.8118C112.895 65.5897 112.486 65.4787 111.969 65.4787C111.618 65.4787 111.321 65.5284 111.079 65.6278C110.837 65.724 110.652 65.8582 110.522 66.0305C110.396 66.2029 110.333 66.3984 110.333 66.6172C110.327 66.7995 110.365 66.9586 110.448 67.0945C110.534 67.2304 110.652 67.348 110.801 67.4474C110.95 67.5436 111.122 67.6281 111.318 67.701C111.513 67.7706 111.722 67.8303 111.944 67.88L112.859 68.0987C113.303 68.1982 113.711 68.3307 114.082 68.4964C114.453 68.6622 114.775 68.866 115.047 69.108C115.318 69.3499 115.529 69.6349 115.678 69.9631C115.83 70.2912 115.908 70.6674 115.912 71.0916C115.908 71.7147 115.749 72.255 115.434 72.7124C115.123 73.1664 114.672 73.5194 114.082 73.7713C113.495 74.0199 112.788 74.1442 111.959 74.1442C111.137 74.1442 110.421 74.0182 109.811 73.7663C109.205 73.5144 108.731 73.1416 108.39 72.6477C108.051 72.1506 107.874 71.5357 107.858 70.8033H109.941C109.964 71.1446 110.062 71.4297 110.234 71.6584C110.41 71.8838 110.643 72.0545 110.935 72.1705C111.23 72.2831 111.563 72.3395 111.934 72.3395C112.299 72.3395 112.615 72.2865 112.884 72.1804C113.156 72.0743 113.366 71.9268 113.515 71.7379C113.664 71.549 113.739 71.3319 113.739 71.0866C113.739 70.858 113.671 70.6657 113.535 70.5099C113.403 70.3542 113.207 70.2216 112.949 70.1122C112.693 70.0028 112.38 69.9034 112.009 69.8139L110.9 69.5355C110.042 69.3267 109.364 69.0002 108.867 68.5561C108.37 68.112 108.123 67.5137 108.126 66.7614C108.123 66.1449 108.287 65.6063 108.618 65.1456C108.953 64.6849 109.412 64.3253 109.995 64.0668C110.579 63.8082 111.242 63.679 111.984 63.679C112.74 63.679 113.399 63.8082 113.963 64.0668C114.529 64.3253 114.97 64.6849 115.285 65.1456C115.6 65.6063 115.762 66.1399 115.772 66.7464H113.709ZM119.497 74.1442C119.01 74.1442 118.576 74.0597 118.195 73.8906C117.814 73.7183 117.512 73.4647 117.29 73.13C117.071 72.7919 116.962 72.371 116.962 71.8672C116.962 71.4429 117.04 71.0866 117.195 70.7983C117.351 70.5099 117.563 70.2779 117.832 70.1023C118.1 69.9266 118.405 69.794 118.747 69.7045C119.091 69.6151 119.453 69.5521 119.83 69.5156C120.275 69.4692 120.633 69.4261 120.904 69.3864C121.176 69.3433 121.373 69.2803 121.496 69.1974C121.619 69.1146 121.68 68.992 121.68 68.8295V68.7997C121.68 68.4848 121.58 68.2412 121.382 68.0689C121.186 67.8965 120.908 67.8104 120.546 67.8104C120.165 67.8104 119.862 67.8949 119.637 68.0639C119.411 68.2296 119.262 68.4384 119.189 68.6903L117.23 68.5312C117.33 68.0672 117.525 67.6662 117.817 67.3281C118.109 66.9867 118.485 66.7249 118.945 66.5426C119.41 66.357 119.946 66.2642 120.556 66.2642C120.981 66.2642 121.387 66.3139 121.774 66.4134C122.165 66.5128 122.512 66.6669 122.813 66.8757C123.118 67.0845 123.359 67.353 123.534 67.6811C123.71 68.0059 123.798 68.3954 123.798 68.8494V74H121.789V72.9411H121.73C121.607 73.1797 121.443 73.3902 121.237 73.5724C121.032 73.7514 120.785 73.8923 120.497 73.995C120.208 74.0945 119.875 74.1442 119.497 74.1442ZM120.104 72.6825C120.415 72.6825 120.691 72.6212 120.929 72.4986C121.168 72.3726 121.355 72.2036 121.491 71.9915C121.627 71.7794 121.695 71.5391 121.695 71.2706V70.4602C121.628 70.5033 121.537 70.5431 121.421 70.5795C121.309 70.6127 121.181 70.6442 121.039 70.674C120.896 70.7005 120.753 70.7254 120.611 70.7486C120.468 70.7685 120.339 70.7867 120.223 70.8033C119.975 70.8397 119.758 70.8977 119.572 70.9773C119.386 71.0568 119.242 71.1645 119.139 71.3004C119.037 71.433 118.985 71.5987 118.985 71.7976C118.985 72.0859 119.09 72.3063 119.298 72.4588C119.511 72.608 119.779 72.6825 120.104 72.6825ZM127.559 69.5852V74H125.441V66.3636H127.459V67.7109H127.549C127.718 67.2668 128.001 66.9155 128.399 66.657C128.797 66.3951 129.279 66.2642 129.846 66.2642C130.376 66.2642 130.838 66.3802 131.233 66.6122C131.627 66.8442 131.934 67.1757 132.153 67.6065C132.371 68.0341 132.481 68.5445 132.481 69.1378V74H130.363V69.5156C130.366 69.0483 130.247 68.6837 130.005 68.4219C129.763 68.1567 129.43 68.0241 129.006 68.0241C128.72 68.0241 128.469 68.0855 128.25 68.2081C128.034 68.3307 127.865 68.5097 127.743 68.745C127.623 68.977 127.562 69.2571 127.559 69.5852ZM136.964 74.1243C136.384 74.1243 135.858 73.9751 135.388 73.6768C134.92 73.3752 134.549 72.9328 134.274 72.3494C134.002 71.7628 133.866 71.0436 133.866 70.1918C133.866 69.3168 134.007 68.5893 134.289 68.0092C134.571 67.4259 134.945 66.9901 135.413 66.7017C135.883 66.41 136.399 66.2642 136.959 66.2642C137.386 66.2642 137.743 66.3371 138.028 66.483C138.316 66.6255 138.548 66.8045 138.724 67.0199C138.903 67.232 139.039 67.4408 139.131 67.6463H139.196V63.8182H141.309V74H139.221V72.777H139.131C139.032 72.9891 138.891 73.1996 138.709 73.4084C138.53 73.6139 138.296 73.7846 138.008 73.9205C137.723 74.0563 137.375 74.1243 136.964 74.1243ZM137.635 72.4389C137.976 72.4389 138.265 72.3461 138.5 72.1605C138.739 71.9716 138.921 71.7081 139.047 71.37C139.176 71.032 139.241 70.6359 139.241 70.1818C139.241 69.7277 139.178 69.3333 139.052 68.9986C138.926 68.6638 138.744 68.4053 138.505 68.223C138.266 68.0407 137.976 67.9496 137.635 67.9496C137.287 67.9496 136.994 68.044 136.755 68.233C136.516 68.4219 136.336 68.6837 136.213 69.0185C136.09 69.3532 136.029 69.741 136.029 70.1818C136.029 70.6259 136.09 71.0187 136.213 71.3601C136.339 71.6982 136.52 71.9633 136.755 72.1555C136.994 72.3445 137.287 72.4389 137.635 72.4389ZM143.09 74V63.8182H145.208V67.6463H145.273C145.365 67.4408 145.5 67.232 145.675 67.0199C145.854 66.8045 146.086 66.6255 146.371 66.483C146.66 66.3371 147.018 66.2642 147.445 66.2642C148.002 66.2642 148.516 66.41 148.986 66.7017C149.457 66.9901 149.833 67.4259 150.115 68.0092C150.397 68.5893 150.537 69.3168 150.537 70.1918C150.537 71.0436 150.4 71.7628 150.125 72.3494C149.853 72.9328 149.482 73.3752 149.011 73.6768C148.544 73.9751 148.02 74.1243 147.44 74.1243C147.029 74.1243 146.68 74.0563 146.391 73.9205C146.106 73.7846 145.872 73.6139 145.69 73.4084C145.508 73.1996 145.369 72.9891 145.273 72.777H145.178V74H143.09ZM145.163 70.1818C145.163 70.6359 145.226 71.032 145.352 71.37C145.478 71.7081 145.66 71.9716 145.899 72.1605C146.138 72.3461 146.428 72.4389 146.769 72.4389C147.114 72.4389 147.405 72.3445 147.644 72.1555C147.883 71.9633 148.063 71.6982 148.186 71.3601C148.312 71.0187 148.375 70.6259 148.375 70.1818C148.375 69.741 148.314 69.3532 148.191 69.0185C148.068 68.6837 147.888 68.4219 147.649 68.233C147.41 68.044 147.117 67.9496 146.769 67.9496C146.424 67.9496 146.133 68.0407 145.894 68.223C145.659 68.4053 145.478 68.6638 145.352 68.9986C145.226 69.3333 145.163 69.7277 145.163 70.1818ZM155.401 74.1491C154.629 74.1491 153.961 73.9851 153.397 73.657C152.837 73.3255 152.405 72.8648 152.1 72.2749C151.795 71.6816 151.642 70.9938 151.642 70.2116C151.642 69.4228 151.795 68.7334 152.1 68.1435C152.405 67.5502 152.837 67.0895 153.397 66.7614C153.961 66.4299 154.629 66.2642 155.401 66.2642C156.173 66.2642 156.839 66.4299 157.4 66.7614C157.963 67.0895 158.397 67.5502 158.702 68.1435C159.007 68.7334 159.159 69.4228 159.159 70.2116C159.159 70.9938 159.007 71.6816 158.702 72.2749C158.397 72.8648 157.963 73.3255 157.4 73.657C156.839 73.9851 156.173 74.1491 155.401 74.1491ZM155.411 72.5085C155.762 72.5085 156.056 72.4091 156.291 72.2102C156.526 72.008 156.703 71.733 156.823 71.3849C156.945 71.0369 157.007 70.6409 157.007 70.1967C157.007 69.7526 156.945 69.3565 156.823 69.0085C156.703 68.6605 156.526 68.3854 156.291 68.1832C156.056 67.9811 155.762 67.88 155.411 67.88C155.056 67.88 154.758 67.9811 154.516 68.1832C154.277 68.3854 154.097 68.6605 153.974 69.0085C153.855 69.3565 153.795 69.7526 153.795 70.1967C153.795 70.6409 153.855 71.0369 153.974 71.3849C154.097 71.733 154.277 72.008 154.516 72.2102C154.758 72.4091 155.056 72.5085 155.411 72.5085ZM162.033 66.3636L163.435 69.0334L164.872 66.3636H167.044L164.832 70.1818L167.104 74H164.941L163.435 71.3601L161.953 74H159.766L162.033 70.1818L159.846 66.3636H162.033Z" fill="#F0FFA5"/>
<path d="M13.1768 21L10.2635 10.8182H12.6151L14.3004 17.8928H14.3849L16.2443 10.8182H18.2578L20.1122 17.9077H20.2017L21.8871 10.8182H24.2386L21.3253 21H19.2273L17.2884 14.343H17.2088L15.2749 21H13.1768ZM26.7083 21.1442C26.2211 21.1442 25.7869 21.0597 25.4057 20.8906C25.0246 20.7183 24.723 20.4647 24.5009 20.13C24.2821 19.7919 24.1728 19.371 24.1728 18.8672C24.1728 18.4429 24.2507 18.0866 24.4064 17.7983C24.5622 17.5099 24.7743 17.2779 25.0428 17.1023C25.3113 16.9266 25.6162 16.794 25.9576 16.7045C26.3023 16.6151 26.6635 16.5521 27.0414 16.5156C27.4855 16.4692 27.8435 16.4261 28.1152 16.3864C28.387 16.3433 28.5842 16.2803 28.7069 16.1974C28.8295 16.1146 28.8908 15.992 28.8908 15.8295V15.7997C28.8908 15.4848 28.7914 15.2412 28.5925 15.0689C28.397 14.8965 28.1185 14.8104 27.7573 14.8104C27.3761 14.8104 27.0729 14.8949 26.8475 15.0639C26.6221 15.2296 26.473 15.4384 26.4 15.6903L24.4412 15.5312C24.5407 15.0672 24.7362 14.6662 25.0279 14.3281C25.3195 13.9867 25.6957 13.7249 26.1564 13.5426C26.6204 13.357 27.1574 13.2642 27.7672 13.2642C28.1915 13.2642 28.5975 13.3139 28.9853 13.4134C29.3764 13.5128 29.7227 13.6669 30.0243 13.8757C30.3292 14.0845 30.5695 14.353 30.7452 14.6811C30.9209 15.0059 31.0087 15.3954 31.0087 15.8494V21H29.0002V19.9411H28.9405C28.8179 20.1797 28.6538 20.3902 28.4483 20.5724C28.2428 20.7514 27.9959 20.8923 27.7076 20.995C27.4192 21.0945 27.0861 21.1442 26.7083 21.1442ZM27.3148 19.6825C27.6264 19.6825 27.9015 19.6212 28.1401 19.4986C28.3787 19.3726 28.566 19.2036 28.7019 18.9915C28.8378 18.7794 28.9057 18.5391 28.9057 18.2706V17.4602C28.8394 17.5033 28.7483 17.5431 28.6323 17.5795C28.5196 17.6127 28.392 17.6442 28.2495 17.674C28.1069 17.7005 27.9644 17.7254 27.8219 17.7486C27.6794 17.7685 27.5501 17.7867 27.4341 17.8033C27.1855 17.8397 26.9685 17.8977 26.7828 17.9773C26.5972 18.0568 26.4531 18.1645 26.3503 18.3004C26.2476 18.433 26.1962 18.5987 26.1962 18.7976C26.1962 19.0859 26.3006 19.3063 26.5094 19.4588C26.7215 19.608 26.99 19.6825 27.3148 19.6825ZM34.7697 16.5852V21H32.6518V13.3636H34.6703V14.7109H34.7598C34.9288 14.2668 35.2122 13.9155 35.6099 13.657C36.0076 13.3951 36.4899 13.2642 37.0566 13.2642C37.5869 13.2642 38.0493 13.3802 38.4437 13.6122C38.8381 13.8442 39.1447 14.1757 39.3635 14.6065C39.5822 15.0341 39.6916 15.5445 39.6916 16.1378V21H37.5737V16.5156C37.577 16.0483 37.4577 15.6837 37.2157 15.4219C36.9738 15.1567 36.6407 15.0241 36.2164 15.0241C35.9314 15.0241 35.6795 15.0855 35.4608 15.2081C35.2453 15.3307 35.0763 15.5097 34.9537 15.745C34.8343 15.977 34.773 16.2571 34.7697 16.5852ZM45.4226 13.3636V14.9545H40.8239V13.3636H45.4226ZM41.8679 11.5341H43.9858V18.6534C43.9858 18.849 44.0156 19.0014 44.0753 19.1108C44.1349 19.2169 44.2178 19.2914 44.3239 19.3345C44.4332 19.3776 44.5592 19.3991 44.7017 19.3991C44.8011 19.3991 44.9006 19.3909 45 19.3743C45.0994 19.3544 45.1757 19.3395 45.2287 19.3295L45.5618 20.9055C45.4557 20.9387 45.3066 20.9768 45.1143 21.0199C44.9221 21.0663 44.6884 21.0945 44.4134 21.1044C43.9029 21.1243 43.4555 21.0563 43.071 20.9006C42.6899 20.7448 42.3932 20.5028 42.1811 20.1747C41.969 19.8466 41.8646 19.4323 41.8679 18.9318V11.5341ZM54.1042 13.3636V14.9545H49.5055V13.3636H54.1042ZM50.5495 11.5341H52.6674V18.6534C52.6674 18.849 52.6973 19.0014 52.7569 19.1108C52.8166 19.2169 52.8994 19.2914 53.0055 19.3345C53.1149 19.3776 53.2408 19.3991 53.3833 19.3991C53.4828 19.3991 53.5822 19.3909 53.6816 19.3743C53.7811 19.3544 53.8573 19.3395 53.9103 19.3295L54.2434 20.9055C54.1374 20.9387 53.9882 20.9768 53.796 21.0199C53.6038 21.0663 53.3701 21.0945 53.095 21.1044C52.5846 21.1243 52.1371 21.0563 51.7527 20.9006C51.3715 20.7448 51.0749 20.5028 50.8627 20.1747C50.6506 19.8466 50.5462 19.4323 50.5495 18.9318V11.5341ZM58.8521 21.1491C58.0798 21.1491 57.412 20.9851 56.8485 20.657C56.2884 20.3255 55.8559 19.8648 55.551 19.2749C55.246 18.6816 55.0936 17.9938 55.0936 17.2116C55.0936 16.4228 55.246 15.7334 55.551 15.1435C55.8559 14.5502 56.2884 14.0895 56.8485 13.7614C57.412 13.4299 58.0798 13.2642 58.8521 13.2642C59.6243 13.2642 60.2905 13.4299 60.8507 13.7614C61.4141 14.0895 61.8483 14.5502 62.1532 15.1435C62.4582 15.7334 62.6106 16.4228 62.6106 17.2116C62.6106 17.9938 62.4582 18.6816 62.1532 19.2749C61.8483 19.8648 61.4141 20.3255 60.8507 20.657C60.2905 20.9851 59.6243 21.1491 58.8521 21.1491ZM58.862 19.5085C59.2134 19.5085 59.5067 19.4091 59.742 19.2102C59.9773 19.008 60.1547 18.733 60.274 18.3849C60.3966 18.0369 60.4579 17.6409 60.4579 17.1967C60.4579 16.7526 60.3966 16.3565 60.274 16.0085C60.1547 15.6605 59.9773 15.3854 59.742 15.1832C59.5067 14.9811 59.2134 14.88 58.862 14.88C58.5074 14.88 58.2091 14.9811 57.9672 15.1832C57.7285 15.3854 57.5479 15.6605 57.4252 16.0085C57.3059 16.3565 57.2463 16.7526 57.2463 17.1967C57.2463 17.6409 57.3059 18.0369 57.4252 18.3849C57.5479 18.733 57.7285 19.008 57.9672 19.2102C58.2091 19.4091 58.5074 19.5085 58.862 19.5085ZM67.228 21V13.3636H69.2812V14.696H69.3608C69.5 14.2221 69.7337 13.8641 70.0618 13.6222C70.3899 13.3769 70.7678 13.2543 71.1953 13.2543C71.3014 13.2543 71.4157 13.2609 71.5384 13.2741C71.661 13.2874 71.7687 13.3056 71.8615 13.3288V15.2081C71.7621 15.1783 71.6245 15.1518 71.4489 15.1286C71.2732 15.1054 71.1125 15.0938 70.9666 15.0938C70.6551 15.0938 70.3767 15.1617 70.1314 15.2976C69.8894 15.4302 69.6972 15.6158 69.5547 15.8544C69.4155 16.093 69.3459 16.3681 69.3459 16.6797V21H67.228ZM77.8535 17.7486V13.3636H79.9714V21H77.938V19.6129H77.8585C77.6861 20.0604 77.3994 20.42 76.9984 20.6918C76.6007 20.9635 76.1151 21.0994 75.5417 21.0994C75.0313 21.0994 74.5822 20.9834 74.1944 20.7514C73.8066 20.5194 73.5034 20.1896 73.2846 19.7621C73.0692 19.3345 72.9598 18.8224 72.9565 18.2259V13.3636H75.0744V17.848C75.0777 18.2988 75.1987 18.6551 75.4373 18.9169C75.676 19.1787 75.9958 19.3097 76.3968 19.3097C76.652 19.3097 76.8907 19.2517 77.1127 19.1357C77.3348 19.0163 77.5138 18.8407 77.6497 18.6087C77.7889 18.3767 77.8568 18.09 77.8535 17.7486ZM83.7834 16.5852V21H81.6655V13.3636H83.6839V14.7109H83.7734C83.9425 14.2668 84.2259 13.9155 84.6236 13.657C85.0213 13.3951 85.5036 13.2642 86.0703 13.2642C86.6006 13.2642 87.063 13.3802 87.4574 13.6122C87.8518 13.8442 88.1584 14.1757 88.3771 14.6065C88.5959 15.0341 88.7053 15.5445 88.7053 16.1378V21H86.5874V16.5156C86.5907 16.0483 86.4714 15.6837 86.2294 15.4219C85.9875 15.1567 85.6544 15.0241 85.2301 15.0241C84.9451 15.0241 84.6932 15.0855 84.4744 15.2081C84.259 15.3307 84.09 15.5097 83.9673 15.745C83.848 15.977 83.7867 16.2571 83.7834 16.5852ZM97.6765 13.3636V14.9545H93.0778V13.3636H97.6765ZM94.1218 11.5341H96.2397V18.6534C96.2397 18.849 96.2695 19.0014 96.3292 19.1108C96.3888 19.2169 96.4717 19.2914 96.5778 19.3345C96.6871 19.3776 96.8131 19.3991 96.9556 19.3991C97.055 19.3991 97.1545 19.3909 97.2539 19.3743C97.3533 19.3544 97.4296 19.3395 97.4826 19.3295L97.8157 20.9055C97.7096 20.9387 97.5605 20.9768 97.3683 21.0199C97.176 21.0663 96.9424 21.0945 96.6673 21.1044C96.1568 21.1243 95.7094 21.0563 95.3249 20.9006C94.9438 20.7448 94.6471 20.5028 94.435 20.1747C94.2229 19.8466 94.1185 19.4323 94.1218 18.9318V11.5341ZM101.338 16.5852V21H99.2202V10.8182H101.278V14.7109H101.368C101.54 14.2602 101.819 13.9072 102.203 13.652C102.588 13.3935 103.07 13.2642 103.65 13.2642C104.18 13.2642 104.643 13.3802 105.037 13.6122C105.435 13.8409 105.743 14.1707 105.962 14.6016C106.184 15.0291 106.293 15.5412 106.29 16.1378V21H104.172V16.5156C104.175 16.045 104.056 15.6787 103.814 15.4169C103.575 15.1551 103.241 15.0241 102.81 15.0241C102.521 15.0241 102.266 15.0855 102.044 15.2081C101.825 15.3307 101.653 15.5097 101.527 15.745C101.404 15.977 101.341 16.2571 101.338 16.5852ZM111.437 21.1491C110.651 21.1491 109.975 20.9901 109.408 20.6719C108.845 20.3504 108.411 19.8963 108.106 19.3097C107.801 18.7197 107.648 18.022 107.648 17.2166C107.648 16.4311 107.801 15.7417 108.106 15.1484C108.411 14.5552 108.84 14.0928 109.393 13.7614C109.95 13.4299 110.603 13.2642 111.352 13.2642C111.856 13.2642 112.325 13.3454 112.759 13.5078C113.197 13.6669 113.578 13.9072 113.903 14.2287C114.231 14.5502 114.486 14.9545 114.668 15.4418C114.85 15.9257 114.942 16.4924 114.942 17.142V17.7237H108.493V16.4112H112.948C112.948 16.1063 112.882 15.8362 112.749 15.6009C112.617 15.3655 112.433 15.1816 112.197 15.049C111.965 14.9131 111.695 14.8452 111.387 14.8452C111.065 14.8452 110.78 14.9197 110.532 15.0689C110.287 15.2147 110.094 15.4119 109.955 15.6605C109.816 15.9058 109.745 16.1792 109.741 16.4808V17.7287C109.741 18.1065 109.811 18.433 109.95 18.7081C110.093 18.9832 110.293 19.1953 110.552 19.3445C110.81 19.4936 111.117 19.5682 111.471 19.5682C111.707 19.5682 111.922 19.535 112.118 19.4688C112.313 19.4025 112.481 19.303 112.62 19.1705C112.759 19.0379 112.865 18.8755 112.938 18.6832L114.897 18.8125C114.797 19.2831 114.594 19.6941 114.285 20.0455C113.98 20.3935 113.586 20.6652 113.102 20.8608C112.622 21.053 112.066 21.1491 111.437 21.1491ZM123.014 21.1491C122.232 21.1491 121.559 20.9834 120.996 20.652C120.436 20.3172 120.005 19.8532 119.703 19.2599C119.405 18.6667 119.256 17.9839 119.256 17.2116C119.256 16.4295 119.406 15.7434 119.708 15.1534C120.013 14.5601 120.446 14.0978 121.006 13.7663C121.566 13.4316 122.232 13.2642 123.004 13.2642C123.67 13.2642 124.254 13.3852 124.754 13.6271C125.255 13.8691 125.651 14.2088 125.942 14.6463C126.234 15.0838 126.395 15.5975 126.425 16.1875H124.426C124.37 15.8063 124.221 15.4998 123.979 15.2678C123.74 15.0324 123.427 14.9148 123.039 14.9148C122.711 14.9148 122.424 15.0043 122.179 15.1832C121.937 15.3589 121.748 15.6158 121.612 15.9538C121.476 16.2919 121.408 16.7012 121.408 17.1818C121.408 17.669 121.475 18.0833 121.607 18.4247C121.743 18.7661 121.934 19.0263 122.179 19.2053C122.424 19.3842 122.711 19.4737 123.039 19.4737C123.281 19.4737 123.498 19.424 123.69 19.3246C123.886 19.2251 124.047 19.081 124.173 18.892C124.302 18.6998 124.386 18.4695 124.426 18.201H126.425C126.392 18.7843 126.232 19.2981 125.947 19.7422C125.666 20.183 125.276 20.5277 124.779 20.7763C124.282 21.0249 123.694 21.1491 123.014 21.1491ZM131.231 21.1491C130.459 21.1491 129.791 20.9851 129.227 20.657C128.667 20.3255 128.235 19.8648 127.93 19.2749C127.625 18.6816 127.472 17.9938 127.472 17.2116C127.472 16.4228 127.625 15.7334 127.93 15.1435C128.235 14.5502 128.667 14.0895 129.227 13.7614C129.791 13.4299 130.459 13.2642 131.231 13.2642C132.003 13.2642 132.669 13.4299 133.23 13.7614C133.793 14.0895 134.227 14.5502 134.532 15.1435C134.837 15.7334 134.99 16.4228 134.99 17.2116C134.99 17.9938 134.837 18.6816 134.532 19.2749C134.227 19.8648 133.793 20.3255 133.23 20.657C132.669 20.9851 132.003 21.1491 131.231 21.1491ZM131.241 19.5085C131.592 19.5085 131.886 19.4091 132.121 19.2102C132.356 19.008 132.534 18.733 132.653 18.3849C132.776 18.0369 132.837 17.6409 132.837 17.1967C132.837 16.7526 132.776 16.3565 132.653 16.0085C132.534 15.6605 132.356 15.3854 132.121 15.1832C131.886 14.9811 131.592 14.88 131.241 14.88C130.886 14.88 130.588 14.9811 130.346 15.1832C130.107 15.3854 129.927 15.6605 129.804 16.0085C129.685 16.3565 129.625 16.7526 129.625 17.1967C129.625 17.6409 129.685 18.0369 129.804 18.3849C129.927 18.733 130.107 19.008 130.346 19.2102C130.588 19.4091 130.886 19.5085 131.241 19.5085ZM139.181 21.1243C138.601 21.1243 138.075 20.9751 137.605 20.6768C137.137 20.3752 136.766 19.9328 136.491 19.3494C136.219 18.7628 136.083 18.0436 136.083 17.1918C136.083 16.3168 136.224 15.5893 136.506 15.0092C136.788 14.4259 137.162 13.9901 137.629 13.7017C138.1 13.41 138.615 13.2642 139.176 13.2642C139.603 13.2642 139.959 13.3371 140.244 13.483C140.533 13.6255 140.765 13.8045 140.941 14.0199C141.119 14.232 141.255 14.4408 141.348 14.6463H141.413V10.8182H143.526V21H141.438V19.777H141.348C141.249 19.9891 141.108 20.1996 140.926 20.4084C140.747 20.6139 140.513 20.7846 140.225 20.9205C139.94 21.0563 139.592 21.1243 139.181 21.1243ZM139.852 19.4389C140.193 19.4389 140.481 19.3461 140.717 19.1605C140.955 18.9716 141.138 18.7081 141.264 18.37C141.393 18.032 141.458 17.6359 141.458 17.1818C141.458 16.7277 141.395 16.3333 141.269 15.9986C141.143 15.6638 140.96 15.4053 140.722 15.223C140.483 15.0407 140.193 14.9496 139.852 14.9496C139.504 14.9496 139.21 15.044 138.972 15.233C138.733 15.4219 138.552 15.6837 138.43 16.0185C138.307 16.3532 138.246 16.741 138.246 17.1818C138.246 17.6259 138.307 18.0187 138.43 18.3601C138.556 18.6982 138.736 18.9633 138.972 19.1555C139.21 19.3445 139.504 19.4389 139.852 19.4389ZM148.747 21.1491C147.962 21.1491 147.286 20.9901 146.719 20.6719C146.155 20.3504 145.721 19.8963 145.416 19.3097C145.111 18.7197 144.959 18.022 144.959 17.2166C144.959 16.4311 145.111 15.7417 145.416 15.1484C145.721 14.5552 146.15 14.0928 146.704 13.7614C147.261 13.4299 147.914 13.2642 148.663 13.2642C149.166 13.2642 149.635 13.3454 150.07 13.5078C150.507 13.6669 150.888 13.9072 151.213 14.2287C151.541 14.5502 151.796 14.9545 151.979 15.4418C152.161 15.9257 152.252 16.4924 152.252 17.142V17.7237H145.804V16.4112H150.259C150.259 16.1063 150.192 15.8362 150.06 15.6009C149.927 15.3655 149.743 15.1816 149.508 15.049C149.276 14.9131 149.006 14.8452 148.697 14.8452C148.376 14.8452 148.091 14.9197 147.842 15.0689C147.597 15.2147 147.405 15.4119 147.266 15.6605C147.126 15.9058 147.055 16.1792 147.052 16.4808V17.7287C147.052 18.1065 147.121 18.433 147.261 18.7081C147.403 18.9832 147.604 19.1953 147.862 19.3445C148.121 19.4936 148.427 19.5682 148.782 19.5682C149.017 19.5682 149.233 19.535 149.428 19.4688C149.624 19.4025 149.791 19.303 149.93 19.1705C150.07 19.0379 150.176 18.8755 150.249 18.6832L152.207 18.8125C152.108 19.2831 151.904 19.6941 151.596 20.0455C151.291 20.3935 150.897 20.6652 150.413 20.8608C149.932 21.053 149.377 21.1491 148.747 21.1491ZM155.454 17.9474V17.7784C155.457 17.1984 155.509 16.736 155.608 16.3913C155.711 16.0466 155.86 15.7682 156.055 15.5561C156.251 15.344 156.486 15.1518 156.761 14.9794C156.967 14.8468 157.151 14.7093 157.313 14.5668C157.476 14.4242 157.605 14.2668 157.701 14.0945C157.797 13.9188 157.845 13.7232 157.845 13.5078C157.845 13.2791 157.79 13.0786 157.681 12.9062C157.572 12.7339 157.424 12.6013 157.239 12.5085C157.056 12.4157 156.854 12.3693 156.632 12.3693C156.417 12.3693 156.213 12.4174 156.021 12.5135C155.828 12.6063 155.671 12.7455 155.548 12.9311C155.426 13.1134 155.359 13.3404 155.349 13.6122H153.321C153.338 12.9493 153.497 12.4025 153.798 11.9716C154.1 11.5374 154.499 11.2143 154.996 11.0021C155.494 10.7867 156.042 10.679 156.642 10.679C157.302 10.679 157.885 10.7884 158.392 11.0071C158.899 11.2225 159.297 11.5357 159.585 11.9467C159.874 12.3577 160.018 12.8532 160.018 13.4332C160.018 13.821 159.953 14.1657 159.824 14.4673C159.698 14.7656 159.521 15.0308 159.292 15.2628C159.063 15.4915 158.793 15.6986 158.482 15.8842C158.22 16.04 158.004 16.2024 157.835 16.3714C157.67 16.5405 157.545 16.736 157.462 16.9581C157.383 17.1802 157.341 17.4536 157.338 17.7784V17.9474H155.454ZM156.438 21.1293C156.107 21.1293 155.823 21.0133 155.588 20.7812C155.356 20.5459 155.242 20.2642 155.245 19.9361C155.242 19.6113 155.356 19.3329 155.588 19.1009C155.823 18.8688 156.107 18.7528 156.438 18.7528C156.753 18.7528 157.03 18.8688 157.268 19.1009C157.507 19.3329 157.628 19.6113 157.631 19.9361C157.628 20.1548 157.57 20.3554 157.457 20.5376C157.348 20.7166 157.204 20.8608 157.025 20.9702C156.846 21.0762 156.65 21.1293 156.438 21.1293ZM11.0568 36V27.2727H12.1136V35.0625H16.1705V36H11.0568ZM20.3295 36.1364C19.7386 36.1364 19.2202 35.9957 18.7741 35.7145C18.331 35.4332 17.9844 35.0398 17.7344 34.5341C17.4872 34.0284 17.3636 33.4375 17.3636 32.7614C17.3636 32.0795 17.4872 31.4844 17.7344 30.9759C17.9844 30.4673 18.331 30.0724 18.7741 29.7912C19.2202 29.5099 19.7386 29.3693 20.3295 29.3693C20.9205 29.3693 21.4375 29.5099 21.8807 29.7912C22.3267 30.0724 22.6733 30.4673 22.9205 30.9759C23.1705 31.4844 23.2955 32.0795 23.2955 32.7614C23.2955 33.4375 23.1705 34.0284 22.9205 34.5341C22.6733 35.0398 22.3267 35.4332 21.8807 35.7145C21.4375 35.9957 20.9205 36.1364 20.3295 36.1364ZM20.3295 35.233C20.7784 35.233 21.1477 35.1179 21.4375 34.8878C21.7273 34.6577 21.9418 34.3551 22.081 33.9801C22.2202 33.6051 22.2898 33.1989 22.2898 32.7614C22.2898 32.3239 22.2202 31.9162 22.081 31.5384C21.9418 31.1605 21.7273 30.8551 21.4375 30.6222C21.1477 30.3892 20.7784 30.2727 20.3295 30.2727C19.8807 30.2727 19.5114 30.3892 19.2216 30.6222C18.9318 30.8551 18.7173 31.1605 18.5781 31.5384C18.4389 31.9162 18.3693 32.3239 18.3693 32.7614C18.3693 33.1989 18.4389 33.6051 18.5781 33.9801C18.7173 34.3551 18.9318 34.6577 19.2216 34.8878C19.5114 35.1179 19.8807 35.233 20.3295 35.233ZM27.4897 36.1364C26.8988 36.1364 26.3803 35.9957 25.9343 35.7145C25.4911 35.4332 25.1445 35.0398 24.8945 34.5341C24.6474 34.0284 24.5238 33.4375 24.5238 32.7614C24.5238 32.0795 24.6474 31.4844 24.8945 30.9759C25.1445 30.4673 25.4911 30.0724 25.9343 29.7912C26.3803 29.5099 26.8988 29.3693 27.4897 29.3693C28.0806 29.3693 28.5977 29.5099 29.0408 29.7912C29.4869 30.0724 29.8335 30.4673 30.0806 30.9759C30.3306 31.4844 30.4556 32.0795 30.4556 32.7614C30.4556 33.4375 30.3306 34.0284 30.0806 34.5341C29.8335 35.0398 29.4869 35.4332 29.0408 35.7145C28.5977 35.9957 28.0806 36.1364 27.4897 36.1364ZM27.4897 35.233C27.9386 35.233 28.3079 35.1179 28.5977 34.8878C28.8874 34.6577 29.1019 34.3551 29.2411 33.9801C29.3803 33.6051 29.4499 33.1989 29.4499 32.7614C29.4499 32.3239 29.3803 31.9162 29.2411 31.5384C29.1019 31.1605 28.8874 30.8551 28.5977 30.6222C28.3079 30.3892 27.9386 30.2727 27.4897 30.2727C27.0408 30.2727 26.6715 30.3892 26.3817 30.6222C26.092 30.8551 25.8775 31.1605 25.7383 31.5384C25.5991 31.9162 25.5295 32.3239 25.5295 32.7614C25.5295 33.1989 25.5991 33.6051 25.7383 33.9801C25.8775 34.3551 26.092 34.6577 26.3817 34.8878C26.6715 35.1179 27.0408 35.233 27.4897 35.233ZM32.9283 33.6136L32.9112 32.3693H33.1158L35.9794 29.4545H37.2237L34.1726 32.5398H34.0874L32.9283 33.6136ZM31.9908 36V27.2727H32.9964V36H31.9908ZM36.1499 36L33.593 32.7614L34.3089 32.0625L37.4283 36H36.1499ZM44.8079 29.4545V30.3068H41.2795V29.4545H44.8079ZM42.3363 36V28.5511C42.3363 28.1761 42.4244 27.8636 42.6005 27.6136C42.7766 27.3636 43.0053 27.1761 43.2866 27.0511C43.5678 26.9261 43.8647 26.8636 44.1772 26.8636C44.4244 26.8636 44.6261 26.8835 44.7823 26.9233C44.9386 26.9631 45.055 27 45.1317 27.0341L44.842 27.9034C44.7908 27.8864 44.7198 27.8651 44.6289 27.8395C44.5408 27.8139 44.4244 27.8011 44.2795 27.8011C43.9471 27.8011 43.707 27.8849 43.5593 28.0526C43.4144 28.2202 43.342 28.4659 43.342 28.7898V36H42.3363ZM48.6069 36.1364C48.016 36.1364 47.4975 35.9957 47.0515 35.7145C46.6083 35.4332 46.2617 35.0398 46.0117 34.5341C45.7646 34.0284 45.641 33.4375 45.641 32.7614C45.641 32.0795 45.7646 31.4844 46.0117 30.9759C46.2617 30.4673 46.6083 30.0724 47.0515 29.7912C47.4975 29.5099 48.016 29.3693 48.6069 29.3693C49.1978 29.3693 49.7148 29.5099 50.158 29.7912C50.604 30.0724 50.9506 30.4673 51.1978 30.9759C51.4478 31.4844 51.5728 32.0795 51.5728 32.7614C51.5728 33.4375 51.4478 34.0284 51.1978 34.5341C50.9506 35.0398 50.604 35.4332 50.158 35.7145C49.7148 35.9957 49.1978 36.1364 48.6069 36.1364ZM48.6069 35.233C49.0558 35.233 49.4251 35.1179 49.7148 34.8878C50.0046 34.6577 50.2191 34.3551 50.3583 33.9801C50.4975 33.6051 50.5671 33.1989 50.5671 32.7614C50.5671 32.3239 50.4975 31.9162 50.3583 31.5384C50.2191 31.1605 50.0046 30.8551 49.7148 30.6222C49.4251 30.3892 49.0558 30.2727 48.6069 30.2727C48.158 30.2727 47.7887 30.3892 47.4989 30.6222C47.2092 30.8551 46.9947 31.1605 46.8555 31.5384C46.7163 31.9162 46.6467 32.3239 46.6467 32.7614C46.6467 33.1989 46.7163 33.6051 46.8555 33.9801C46.9947 34.3551 47.2092 34.6577 47.4989 34.8878C47.7887 35.1179 48.158 35.233 48.6069 35.233ZM53.108 36V29.4545H54.0795V30.4432H54.1477C54.267 30.1193 54.483 29.8565 54.7955 29.6548C55.108 29.4531 55.4602 29.3523 55.8523 29.3523C55.9261 29.3523 56.0185 29.3537 56.1293 29.3565C56.2401 29.3594 56.3239 29.3636 56.3807 29.3693V30.392C56.3466 30.3835 56.2685 30.3707 56.1463 30.3537C56.027 30.3338 55.9006 30.3239 55.767 30.3239C55.4489 30.3239 55.1648 30.3906 54.9148 30.5241C54.6676 30.6548 54.4716 30.8366 54.3267 31.0696C54.1847 31.2997 54.1136 31.5625 54.1136 31.858V36H53.108ZM63.7944 29.4545V30.3068H60.4023V29.4545H63.7944ZM61.391 27.8864H62.3967V34.125C62.3967 34.4091 62.4379 34.6222 62.5202 34.7642C62.6055 34.9034 62.7134 34.9972 62.8441 35.0455C62.9776 35.0909 63.1183 35.1136 63.266 35.1136C63.3768 35.1136 63.4677 35.108 63.5387 35.0966C63.6097 35.0824 63.6665 35.071 63.7092 35.0625L63.9137 35.9659C63.8455 35.9915 63.7504 36.017 63.6282 36.0426C63.506 36.071 63.3512 36.0852 63.1637 36.0852C62.8796 36.0852 62.6012 36.0241 62.3285 35.902C62.0586 35.7798 61.8342 35.5938 61.6552 35.3438C61.479 35.0938 61.391 34.7784 61.391 34.3977V27.8864ZM66.4535 32.0625V36H65.4478V27.2727H66.4535V30.4773H66.5387C66.6921 30.1392 66.9222 29.8707 67.229 29.6719C67.5387 29.4702 67.9506 29.3693 68.4648 29.3693C68.9109 29.3693 69.3015 29.4588 69.6367 29.6378C69.9719 29.8139 70.2319 30.0852 70.4165 30.4517C70.604 30.8153 70.6978 31.2784 70.6978 31.8409V36H69.6921V31.9091C69.6921 31.3892 69.5572 30.9872 69.2873 30.7031C69.0202 30.4162 68.6495 30.2727 68.1751 30.2727C67.8455 30.2727 67.5501 30.3423 67.2887 30.4815C67.0302 30.6207 66.8256 30.8239 66.6751 31.0909C66.5273 31.358 66.4535 31.6818 66.4535 32.0625ZM75.282 36.1364C74.6513 36.1364 74.1072 35.9972 73.6499 35.7188C73.1953 35.4375 72.8445 35.0455 72.5973 34.5426C72.353 34.0369 72.2308 33.4489 72.2308 32.7784C72.2308 32.108 72.353 31.517 72.5973 31.0057C72.8445 30.4915 73.1882 30.0909 73.6286 29.804C74.0717 29.5142 74.5888 29.3693 75.1797 29.3693C75.5206 29.3693 75.8572 29.4261 76.1896 29.5398C76.522 29.6534 76.8246 29.8381 77.0973 30.0938C77.37 30.3466 77.5874 30.6818 77.7493 31.0994C77.9112 31.517 77.9922 32.0312 77.9922 32.642V33.0682H72.9467V32.1989H76.9695C76.9695 31.8295 76.8956 31.5 76.7479 31.2102C76.603 30.9205 76.3956 30.6918 76.1257 30.5241C75.8587 30.3565 75.5433 30.2727 75.1797 30.2727C74.7791 30.2727 74.4325 30.3722 74.1399 30.571C73.8501 30.767 73.6271 31.0227 73.4709 31.3381C73.3146 31.6534 73.2365 31.9915 73.2365 32.3523V32.9318C73.2365 33.4261 73.3217 33.8452 73.4922 34.1889C73.6655 34.5298 73.9055 34.7898 74.2124 34.9688C74.5192 35.1449 74.8757 35.233 75.282 35.233C75.5462 35.233 75.7848 35.196 75.9979 35.1222C76.2138 35.0455 76.3999 34.9318 76.5561 34.7812C76.7124 34.6278 76.8331 34.4375 76.9183 34.2102L77.8899 34.483C77.7876 34.8125 77.6158 35.1023 77.3743 35.3523C77.1328 35.5994 76.8345 35.7926 76.4794 35.9318C76.1243 36.0682 75.7251 36.1364 75.282 36.1364ZM83.9027 27.2727V36H82.897V27.2727H83.9027ZM85.7447 36V29.4545H86.7504V36H85.7447ZM86.256 28.3636C86.06 28.3636 85.891 28.2969 85.7489 28.1634C85.6097 28.0298 85.5401 27.8693 85.5401 27.6818C85.5401 27.4943 85.6097 27.3338 85.7489 27.2003C85.891 27.0668 86.06 27 86.256 27C86.4521 27 86.6197 27.0668 86.7589 27.2003C86.9009 27.3338 86.9719 27.4943 86.9719 27.6818C86.9719 27.8693 86.9009 28.0298 86.7589 28.1634C86.6197 28.2969 86.4521 28.3636 86.256 28.3636ZM89.598 32.0625V36H88.5923V29.4545H89.5639V30.4773H89.6491C89.8026 30.1449 90.0355 29.8778 90.348 29.6761C90.6605 29.4716 91.0639 29.3693 91.5582 29.3693C92.0014 29.3693 92.3892 29.4602 92.7216 29.642C93.054 29.821 93.3125 30.0938 93.4972 30.4602C93.6818 30.8239 93.7741 31.2841 93.7741 31.8409V36H92.7685V31.9091C92.7685 31.3949 92.6349 30.9943 92.3679 30.7074C92.1009 30.4176 91.7344 30.2727 91.2685 30.2727C90.9474 30.2727 90.6605 30.3423 90.4077 30.4815C90.1577 30.6207 89.9602 30.8239 89.8153 31.0909C89.6705 31.358 89.598 31.6818 89.598 32.0625ZM96.5494 33.6136L96.5323 32.3693H96.7369L99.6005 29.4545H100.845L97.7937 32.5398H97.7085L96.5494 33.6136ZM95.6119 36V27.2727H96.6175V36H95.6119ZM99.771 36L97.2141 32.7614L97.93 32.0625L101.049 36H99.771ZM107.44 36.1534C107.026 36.1534 106.649 36.0753 106.311 35.919C105.973 35.7599 105.705 35.5312 105.506 35.233C105.307 34.9318 105.207 34.5682 105.207 34.142C105.207 33.767 105.281 33.4631 105.429 33.2301C105.577 32.9943 105.774 32.8097 106.021 32.6761C106.268 32.5426 106.541 32.4432 106.839 32.3778C107.141 32.3097 107.443 32.2557 107.747 32.2159C108.145 32.1648 108.467 32.1264 108.714 32.1009C108.964 32.0724 109.146 32.0256 109.26 31.9602C109.376 31.8949 109.435 31.7812 109.435 31.6193V31.5852C109.435 31.1648 109.32 30.8381 109.089 30.6051C108.862 30.3722 108.517 30.2557 108.054 30.2557C107.574 30.2557 107.197 30.3608 106.925 30.571C106.652 30.7812 106.46 31.0057 106.349 31.2443L105.395 30.9034C105.565 30.5057 105.793 30.196 106.077 29.9744C106.364 29.75 106.676 29.5937 107.014 29.5057C107.355 29.4148 107.69 29.3693 108.02 29.3693C108.23 29.3693 108.472 29.3949 108.744 29.446C109.02 29.4943 109.286 29.5952 109.541 29.7486C109.8 29.902 110.014 30.1335 110.185 30.4432C110.355 30.7528 110.44 31.1676 110.44 31.6875V36H109.435V35.1136H109.384C109.315 35.2557 109.202 35.4077 109.043 35.5696C108.884 35.7315 108.672 35.8693 108.408 35.983C108.143 36.0966 107.821 36.1534 107.44 36.1534ZM107.594 35.25C107.991 35.25 108.327 35.1719 108.599 35.0156C108.875 34.8594 109.082 34.6577 109.222 34.4105C109.364 34.1634 109.435 33.9034 109.435 33.6307V32.7102C109.392 32.7614 109.298 32.8082 109.153 32.8509C109.011 32.8906 108.847 32.9261 108.659 32.9574C108.474 32.9858 108.294 33.0114 108.118 33.0341C107.945 33.054 107.804 33.071 107.696 33.0852C107.435 33.1193 107.19 33.1747 106.963 33.2514C106.739 33.3253 106.557 33.4375 106.418 33.5881C106.281 33.7358 106.213 33.9375 106.213 34.1932C106.213 34.5426 106.342 34.8068 106.601 34.9858C106.862 35.1619 107.193 35.25 107.594 35.25ZM115.123 29.4545V30.3068H111.73V29.4545H115.123ZM112.719 27.8864H113.725V34.125C113.725 34.4091 113.766 34.6222 113.848 34.7642C113.934 34.9034 114.042 34.9972 114.172 35.0455C114.306 35.0909 114.446 35.1136 114.594 35.1136C114.705 35.1136 114.796 35.108 114.867 35.0966C114.938 35.0824 114.995 35.071 115.037 35.0625L115.242 35.9659C115.174 35.9915 115.078 36.017 114.956 36.0426C114.834 36.071 114.679 36.0852 114.492 36.0852C114.208 36.0852 113.929 36.0241 113.657 35.902C113.387 35.7798 113.162 35.5938 112.983 35.3438C112.807 35.0938 112.719 34.7784 112.719 34.3977V27.8864ZM122.755 36.1364C122.124 36.1364 121.58 35.9972 121.123 35.7188C120.668 35.4375 120.317 35.0455 120.07 34.5426C119.826 34.0369 119.703 33.4489 119.703 32.7784C119.703 32.108 119.826 31.517 120.07 31.0057C120.317 30.4915 120.661 30.0909 121.101 29.804C121.544 29.5142 122.061 29.3693 122.652 29.3693C122.993 29.3693 123.33 29.4261 123.662 29.5398C123.995 29.6534 124.297 29.8381 124.57 30.0938C124.843 30.3466 125.06 30.6818 125.222 31.0994C125.384 31.517 125.465 32.0312 125.465 32.642V33.0682H120.419V32.1989H124.442C124.442 31.8295 124.368 31.5 124.221 31.2102C124.076 30.9205 123.868 30.6918 123.598 30.5241C123.331 30.3565 123.016 30.2727 122.652 30.2727C122.252 30.2727 121.905 30.3722 121.613 30.571C121.323 30.767 121.1 31.0227 120.944 31.3381C120.787 31.6534 120.709 31.9915 120.709 32.3523V32.9318C120.709 33.4261 120.794 33.8452 120.965 34.1889C121.138 34.5298 121.378 34.7898 121.685 34.9688C121.992 35.1449 122.348 35.233 122.755 35.233C123.019 35.233 123.257 35.196 123.471 35.1222C123.686 35.0455 123.873 34.9318 124.029 34.7812C124.185 34.6278 124.306 34.4375 124.391 34.2102L125.363 34.483C125.26 34.8125 125.088 35.1023 124.847 35.3523C124.605 35.5994 124.307 35.7926 123.952 35.9318C123.597 36.0682 123.198 36.1364 122.755 36.1364ZM128.921 36.1534C128.506 36.1534 128.13 36.0753 127.792 35.919C127.453 35.7599 127.185 35.5312 126.986 35.233C126.787 34.9318 126.688 34.5682 126.688 34.142C126.688 33.767 126.762 33.4631 126.909 33.2301C127.057 32.9943 127.255 32.8097 127.502 32.6761C127.749 32.5426 128.022 32.4432 128.32 32.3778C128.621 32.3097 128.924 32.2557 129.228 32.2159C129.625 32.1648 129.948 32.1264 130.195 32.1009C130.445 32.0724 130.627 32.0256 130.74 31.9602C130.857 31.8949 130.915 31.7812 130.915 31.6193V31.5852C130.915 31.1648 130.8 30.8381 130.57 30.6051C130.343 30.3722 129.998 30.2557 129.534 30.2557C129.054 30.2557 128.678 30.3608 128.405 30.571C128.132 30.7812 127.941 31.0057 127.83 31.2443L126.875 30.9034C127.046 30.5057 127.273 30.196 127.557 29.9744C127.844 29.75 128.157 29.5937 128.495 29.5057C128.836 29.4148 129.171 29.3693 129.5 29.3693C129.711 29.3693 129.952 29.3949 130.225 29.446C130.5 29.4943 130.766 29.5952 131.022 29.7486C131.28 29.902 131.495 30.1335 131.665 30.4432C131.836 30.7528 131.921 31.1676 131.921 31.6875V36H130.915V35.1136H130.864C130.796 35.2557 130.682 35.4077 130.523 35.5696C130.364 35.7315 130.152 35.8693 129.888 35.983C129.624 36.0966 129.301 36.1534 128.921 36.1534ZM129.074 35.25C129.472 35.25 129.807 35.1719 130.08 35.0156C130.355 34.8594 130.563 34.6577 130.702 34.4105C130.844 34.1634 130.915 33.9034 130.915 33.6307V32.7102C130.873 32.7614 130.779 32.8082 130.634 32.8509C130.492 32.8906 130.327 32.9261 130.14 32.9574C129.955 32.9858 129.775 33.0114 129.598 33.0341C129.425 33.054 129.284 33.071 129.176 33.0852C128.915 33.1193 128.671 33.1747 128.444 33.2514C128.219 33.3253 128.037 33.4375 127.898 33.5881C127.762 33.7358 127.694 33.9375 127.694 34.1932C127.694 34.5426 127.823 34.8068 128.081 34.9858C128.343 35.1619 128.674 35.25 129.074 35.25ZM136.415 36.1364C135.802 36.1364 135.273 35.9915 134.83 35.7017C134.387 35.4119 134.046 35.0128 133.808 34.5043C133.569 33.9957 133.45 33.4148 133.45 32.7614C133.45 32.0966 133.572 31.5099 133.816 31.0014C134.063 30.4901 134.407 30.0909 134.847 29.804C135.29 29.5142 135.808 29.3693 136.398 29.3693C136.859 29.3693 137.273 29.4545 137.643 29.625C138.012 29.7955 138.315 30.0341 138.55 30.3409C138.786 30.6477 138.933 31.0057 138.989 31.4148H137.984C137.907 31.1165 137.737 30.8523 137.472 30.6222C137.211 30.3892 136.859 30.2727 136.415 30.2727C136.023 30.2727 135.68 30.375 135.384 30.5795C135.092 30.7812 134.863 31.0668 134.698 31.4361C134.536 31.8026 134.455 32.233 134.455 32.7273C134.455 33.233 134.535 33.6733 134.694 34.0483C134.856 34.4233 135.083 34.7145 135.376 34.9219C135.671 35.1293 136.018 35.233 136.415 35.233C136.677 35.233 136.914 35.1875 137.127 35.0966C137.34 35.0057 137.521 34.875 137.668 34.7045C137.816 34.5341 137.921 34.3295 137.984 34.0909H138.989C138.933 34.4773 138.792 34.8253 138.567 35.1349C138.346 35.4418 138.052 35.6861 137.685 35.8679C137.322 36.0469 136.898 36.1364 136.415 36.1364ZM141.465 32.0625V36H140.46V27.2727H141.465V30.4773H141.55C141.704 30.1392 141.934 29.8707 142.241 29.6719C142.55 29.4702 142.962 29.3693 143.477 29.3693C143.923 29.3693 144.313 29.4588 144.648 29.6378C144.984 29.8139 145.244 30.0852 145.428 30.4517C145.616 30.8153 145.71 31.2784 145.71 31.8409V36H144.704V31.9091C144.704 31.3892 144.569 30.9872 144.299 30.7031C144.032 30.4162 143.661 30.2727 143.187 30.2727C142.857 30.2727 142.562 30.3423 142.3 30.4815C142.042 30.6207 141.837 30.8239 141.687 31.0909C141.539 31.358 141.465 31.6818 141.465 32.0625ZM153.669 36.1364C153.038 36.1364 152.494 35.9972 152.037 35.7188C151.582 35.4375 151.231 35.0455 150.984 34.5426C150.74 34.0369 150.618 33.4489 150.618 32.7784C150.618 32.108 150.74 31.517 150.984 31.0057C151.231 30.4915 151.575 30.0909 152.015 29.804C152.458 29.5142 152.975 29.3693 153.566 29.3693C153.907 29.3693 154.244 29.4261 154.576 29.5398C154.909 29.6534 155.211 29.8381 155.484 30.0938C155.757 30.3466 155.974 30.6818 156.136 31.0994C156.298 31.517 156.379 32.0312 156.379 32.642V33.0682H151.333V32.1989H155.356C155.356 31.8295 155.282 31.5 155.135 31.2102C154.99 30.9205 154.782 30.6918 154.512 30.5241C154.245 30.3565 153.93 30.2727 153.566 30.2727C153.166 30.2727 152.819 30.3722 152.527 30.571C152.237 30.767 152.014 31.0227 151.858 31.3381C151.701 31.6534 151.623 31.9915 151.623 32.3523V32.9318C151.623 33.4261 151.708 33.8452 151.879 34.1889C152.052 34.5298 152.292 34.7898 152.599 34.9688C152.906 35.1449 153.262 35.233 153.669 35.233C153.933 35.233 154.172 35.196 154.385 35.1222C154.6 35.0455 154.787 34.9318 154.943 34.7812C155.099 34.6278 155.22 34.4375 155.305 34.2102L156.277 34.483C156.174 34.8125 156.002 35.1023 155.761 35.3523C155.52 35.5994 155.221 35.7926 154.866 35.9318C154.511 36.0682 154.112 36.1364 153.669 36.1364ZM158.483 29.4545L160.051 32.1307L161.619 29.4545H162.778L160.665 32.7273L162.778 36H161.619L160.051 33.4602L158.483 36H157.324L159.403 32.7273L157.324 29.4545H158.483ZM166.14 36.1534C165.725 36.1534 165.348 36.0753 165.01 35.919C164.672 35.7599 164.404 35.5312 164.205 35.233C164.006 34.9318 163.907 34.5682 163.907 34.142C163.907 33.767 163.98 33.4631 164.128 33.2301C164.276 32.9943 164.473 32.8097 164.721 32.6761C164.968 32.5426 165.24 32.4432 165.539 32.3778C165.84 32.3097 166.142 32.2557 166.446 32.2159C166.844 32.1648 167.167 32.1264 167.414 32.1009C167.664 32.0724 167.846 32.0256 167.959 31.9602C168.076 31.8949 168.134 31.7812 168.134 31.6193V31.5852C168.134 31.1648 168.019 30.8381 167.789 30.6051C167.561 30.3722 167.216 30.2557 166.753 30.2557C166.273 30.2557 165.897 30.3608 165.624 30.571C165.351 30.7812 165.159 31.0057 165.049 31.2443L164.094 30.9034C164.265 30.5057 164.492 30.196 164.776 29.9744C165.063 29.75 165.375 29.5937 165.713 29.5057C166.054 29.4148 166.39 29.3693 166.719 29.3693C166.929 29.3693 167.171 29.3949 167.444 29.446C167.719 29.4943 167.985 29.5952 168.24 29.7486C168.499 29.902 168.713 30.1335 168.884 30.4432C169.054 30.7528 169.14 31.1676 169.14 31.6875V36H168.134V35.1136H168.083C168.015 35.2557 167.901 35.4077 167.742 35.5696C167.583 35.7315 167.371 35.8693 167.107 35.983C166.843 36.0966 166.52 36.1534 166.14 36.1534ZM166.293 35.25C166.691 35.25 167.026 35.1719 167.299 35.0156C167.574 34.8594 167.782 34.6577 167.921 34.4105C168.063 34.1634 168.134 33.9034 168.134 33.6307V32.7102C168.091 32.7614 167.998 32.8082 167.853 32.8509C167.711 32.8906 167.546 32.9261 167.358 32.9574C167.174 32.9858 166.993 33.0114 166.817 33.0341C166.644 33.054 166.503 33.071 166.395 33.0852C166.134 33.1193 165.89 33.1747 165.662 33.2514C165.438 33.3253 165.256 33.4375 165.117 33.5881C164.98 33.7358 164.912 33.9375 164.912 34.1932C164.912 34.5426 165.042 34.8068 165.3 34.9858C165.561 35.1619 165.892 35.25 166.293 35.25ZM170.975 36V29.4545H171.947V30.4773H172.032C172.168 30.1278 172.388 29.8565 172.692 29.6634C172.996 29.4673 173.362 29.3693 173.788 29.3693C174.219 29.3693 174.579 29.4673 174.866 29.6634C175.156 29.8565 175.381 30.1278 175.543 30.4773H175.612C175.779 30.1392 176.031 29.8707 176.366 29.6719C176.701 29.4702 177.103 29.3693 177.572 29.3693C178.157 29.3693 178.636 29.5526 179.008 29.919C179.38 30.2827 179.566 30.8494 179.566 31.6193V36H178.56V31.6193C178.56 31.1364 178.428 30.7912 178.164 30.5838C177.9 30.3764 177.589 30.2727 177.231 30.2727C176.771 30.2727 176.414 30.4119 176.161 30.6903C175.908 30.9659 175.782 31.3153 175.782 31.7386V36H174.759V31.517C174.759 31.1449 174.638 30.8452 174.397 30.6179C174.156 30.3878 173.844 30.2727 173.464 30.2727C173.202 30.2727 172.958 30.3423 172.731 30.4815C172.506 30.6207 172.325 30.8139 172.185 31.0611C172.049 31.3054 171.981 31.5881 171.981 31.9091V36H170.975ZM181.405 38.4545V29.4545H182.376V30.4943H182.496C182.57 30.3807 182.672 30.2358 182.803 30.0597C182.936 29.8807 183.126 29.7216 183.374 29.5824C183.624 29.4403 183.962 29.3693 184.388 29.3693C184.939 29.3693 185.425 29.5071 185.845 29.7827C186.266 30.0582 186.594 30.4489 186.83 30.9545C187.065 31.4602 187.183 32.0568 187.183 32.7443C187.183 33.4375 187.065 34.0384 186.83 34.5469C186.594 35.0526 186.267 35.4446 185.849 35.723C185.432 35.9986 184.95 36.1364 184.405 36.1364C183.984 36.1364 183.648 36.0668 183.395 35.9276C183.142 35.7855 182.947 35.625 182.811 35.446C182.675 35.2642 182.57 35.1136 182.496 34.9943H182.411V38.4545H181.405ZM182.393 32.7273C182.393 33.2216 182.466 33.6577 182.611 34.0355C182.756 34.4105 182.967 34.7045 183.246 34.9176C183.524 35.1278 183.865 35.233 184.268 35.233C184.689 35.233 185.04 35.1222 185.321 34.9006C185.605 34.6761 185.818 34.375 185.96 33.9972C186.105 33.6165 186.178 33.1932 186.178 32.7273C186.178 32.267 186.107 31.8523 185.964 31.483C185.825 31.1108 185.614 30.8168 185.33 30.6009C185.048 30.3821 184.695 30.2727 184.268 30.2727C183.859 30.2727 183.516 30.3764 183.237 30.5838C182.959 30.7884 182.749 31.0753 182.607 31.4446C182.464 31.8111 182.393 32.2386 182.393 32.7273ZM189.723 27.2727V36H188.717V27.2727H189.723ZM194.309 36.1364C193.679 36.1364 193.135 35.9972 192.677 35.7188C192.223 35.4375 191.872 35.0455 191.625 34.5426C191.38 34.0369 191.258 33.4489 191.258 32.7784C191.258 32.108 191.38 31.517 191.625 31.0057C191.872 30.4915 192.216 30.0909 192.656 29.804C193.099 29.5142 193.616 29.3693 194.207 29.3693C194.548 29.3693 194.885 29.4261 195.217 29.5398C195.549 29.6534 195.852 29.8381 196.125 30.0938C196.397 30.3466 196.615 30.6818 196.777 31.0994C196.939 31.517 197.02 32.0312 197.02 32.642V33.0682H191.974V32.1989H195.997C195.997 31.8295 195.923 31.5 195.775 31.2102C195.63 30.9205 195.423 30.6918 195.153 30.5241C194.886 30.3565 194.571 30.2727 194.207 30.2727C193.806 30.2727 193.46 30.3722 193.167 30.571C192.877 30.767 192.654 31.0227 192.498 31.3381C192.342 31.6534 192.264 31.9915 192.264 32.3523V32.9318C192.264 33.4261 192.349 33.8452 192.52 34.1889C192.693 34.5298 192.933 34.7898 193.24 34.9688C193.547 35.1449 193.903 35.233 194.309 35.233C194.574 35.233 194.812 35.196 195.025 35.1222C195.241 35.0455 195.427 34.9318 195.583 34.7812C195.74 34.6278 195.86 34.4375 195.946 34.2102L196.917 34.483C196.815 34.8125 196.643 35.1023 196.402 35.3523C196.16 35.5994 195.862 35.7926 195.507 35.9318C195.152 36.0682 194.752 36.1364 194.309 36.1364Z" fill="black"/>
</svg>
