<svg xmlns="http://www.w3.org/2000/svg" width="312" height="200" fill="none" viewBox="0 0 312 200"><path fill="#DCDCDC" d="M0 5C0 2.23858 2.23858 0 5 0H307C309.761 0 312 2.23858 312 5V11H0V5Z"/><rect width="312" height="1" y="10" fill="#BABABA"/><rect width="4" height="4" x="4" y="3" fill="#FD605E" rx="2"/><rect width="4" height="4" x="10" y="3" fill="#FBBC3F" rx="2"/><rect width="4" height="4" x="16" y="3" fill="#34C942" rx="2"/><rect width="312" height="189" y="11" fill="#D9D9D9"/><rect width="166" height="189" y="11" fill="#000C18"/><rect width="145" height="189" x="167" y="11" fill="#000C18"/><rect width="1" height="189" x="166" y="11" fill="#2B2B4A"/><rect width="145" height="1" x="167" y="56" fill="#2B2B4A"/><rect width="145" height="1" x="167" y="112" fill="#2B2B4A"/><rect width="166" height="10" y="11" fill="#1C1C2A"/><rect width="166" height="10" y="22" fill="#1C1C2A"/><rect width="166" height="10" y="94" fill="#1C1C2A"/><rect width="166" height="10" y="190" fill="#1C1C2A"/><rect width="166" height="1" y="21" fill="#2B2B4A"/><rect width="21" height="4" x="11" y="14" fill="#fff" rx="2"/><rect width="11" height="4" x="34" y="14" fill="#fff" rx="2"/><rect width="6" height="4" x="11" y="25" fill="#fff" rx="2"/><rect width="11" height="4" x="19" y="25" fill="#fff" rx="2"/><rect width="16" height="4" x="11" y="97" fill="#fff" rx="2"/><rect width="5" height="4" x="29" y="97" fill="#fff" rx="2"/><rect width="14" height="4" x="11" y="193" fill="#fff" rx="2"/><path fill="#fff" d="M5 29L2 25.6078L2.5375 25L5 27.7986L7.4625 25.0141L8 25.6219L5 29Z"/><path fill="#fff" d="M5 101L2 97.6078L2.5375 97L5 99.7986L7.4625 97.0141L8 97.6219L5 101Z"/><path fill="#fff" d="M6 16L2.60777 19L2 18.4625L4.79859 16L2.01413 13.5375L2.62191 13L6 16Z"/><path fill="#fff" d="M6 195L2.60777 198L2 197.463L4.79859 195L2.01413 192.538L2.62191 192L6 195Z"/><path fill="#fff" fill-rule="evenodd" d="M212.674 111C212.91 111 213.068 110.779 212.971 110.584L210.797 106.175C210.682 105.942 210.318 105.942 210.203 106.175L208.029 110.584C207.932 110.779 208.09 111 208.326 111H209.215C209.343 111 209.46 110.932 209.512 110.825L210.203 109.424C210.318 109.191 210.682 109.191 210.797 109.424L211.488 110.825C211.54 110.932 211.657 111 211.785 111H212.674Z" clip-rule="evenodd"/><path fill="#fff" fill-rule="evenodd" d="M208.326 114C208.09 114 207.932 114.221 208.029 114.416L210.203 118.825C210.318 119.058 210.682 119.058 210.797 118.825L212.971 114.416C213.068 114.221 212.91 114 212.674 114H211.785C211.657 114 211.54 114.068 211.488 114.175L210.797 115.576C210.682 115.809 210.318 115.809 210.203 115.576L209.512 114.175C209.46 114.068 209.343 114 209.215 114H208.326Z" clip-rule="evenodd"/><line x1="210.5" x2="210.5" y1="116" y2="109" stroke="#fff"/><rect width="20" height="19" x="175" y="18" fill="#777" rx="2"/><rect width="5" height="5" x="198" y="18" fill="#777" rx="2"/><rect width="26" height="5" x="206" y="18" fill="#777" rx="2"/><rect width="44" height="5" x="203" y="71" fill="#777" rx="2"/><rect width="44" height="14" x="228" y="78" fill="#777" rx="2"/><rect width="22" height="5" x="250" y="71" fill="#777" rx="2"/><rect width="33" height="5" x="239" y="95" fill="#777" rx="2"/><rect width="33" height="5" x="272" y="117" fill="#777" rx="2"/><rect width="7" height="5" x="259" y="117" fill="#777" rx="2"/><rect width="23" height="5" x="213" y="95" fill="#777" rx="2"/><rect width="8" height="5" x="203" y="95" fill="#777" rx="2"/><rect width="15" height="5" x="198" y="25" fill="#777" rx="2"/><rect width="18" height="5" x="215" y="25" fill="#777" rx="2"/></svg>