<svg width="312" height="200" viewBox="0 0 312 200" fill="none" xmlns="http://www.w3.org/2000/svg">
<rect width="311.504" height="200" rx="5" fill="white"/>
<path d="M0 5C0 2.23858 2.23858 0 5 0H307C309.761 0 312 2.23858 312 5V11H0V5Z" fill="#DCDCDC"/>
<rect y="10" width="312" height="1" fill="#BABABA"/>
<rect y="11" width="156" height="189" fill="#A8A8A8"/>
<rect x="156" y="11" width="156" height="91" fill="#000C18"/>
<rect x="234" y="102" width="78" height="98" fill="#000C18"/>
<rect x="156" y="102" width="78" height="98" fill="#000C18"/>
<rect y="24" width="156" height="176" fill="#000C18"/>
<rect x="157" y="102" width="155" height="1" fill="#2B2B4A"/>
<rect width="1" height="189" transform="matrix(-1 0 0 1 157 11)" fill="#2B2B4A"/>
<path d="M234 103H233V200H234V103Z" fill="#2B2B4A"/>
<rect y="11" width="156" height="14" fill="#1C1C2A"/>
<rect y="11" width="30" height="14" fill="#10192C"/>
<rect x="31" y="11" width="30" height="14" fill="#10192C"/>
<rect x="62" y="11" width="30" height="14" fill="#000C18"/>
<rect x="30" y="11" width="1" height="14" fill="#2B2B4A"/>
<rect x="61" y="11" width="1" height="14" fill="#2B2B4A"/>
<rect x="92" y="11" width="1" height="14" fill="#2B2B4A"/>
<rect x="157" y="11" width="155" height="14" fill="#1C1C2A"/>
<rect x="157" y="11" width="30" height="14" fill="#10192C"/>
<rect x="188" y="11" width="30" height="14" fill="#000C18"/>
<rect x="187" y="11" width="1" height="14" fill="#2B2B4A"/>
<rect x="218" y="11" width="1" height="14" fill="#2B2B4A"/>
<rect x="234" y="103" width="78" height="14" fill="#1C1C2A"/>
<rect x="234" y="103" width="24" height="14" fill="#10192C"/>
<rect x="258" y="103" width="24" height="14" fill="#000C18"/>
<rect x="258" y="103" width="0.503226" height="14" fill="#2B2B4A"/>
<rect x="282" y="103" width="0.503226" height="14" fill="#2B2B4A"/>
<rect x="66" y="16" width="7" height="4" rx="2" fill="white"/>
<rect x="76" y="16" width="12" height="4" rx="2" fill="white"/>
<rect x="191" y="16" width="12" height="4" rx="2" fill="#777777"/>
<rect x="260" y="108" width="7" height="4" rx="2" fill="#777777"/>
<rect x="268" y="108" width="11" height="4" rx="2" fill="#777777"/>
<rect x="206" y="16" width="4" height="4" rx="2" fill="#777777"/>
<rect x="160" y="16" width="5" height="4" rx="2" fill="#282828"/>
<rect x="166" y="16" width="16" height="4" rx="2" fill="#282828"/>
<rect x="237" y="108" width="16" height="4" rx="2" fill="#282828"/>
<rect x="33" y="16" width="15" height="4" rx="2" fill="#777777"/>
<rect x="4" y="3" width="4" height="4" rx="2" fill="#FD605E"/>
<rect x="10" y="3" width="4" height="4" rx="2" fill="#FBBC3F"/>
<rect x="16" y="3" width="4" height="4" rx="2" fill="#34C942"/>
<rect x="2" y="16" width="6" height="4" rx="2" fill="#777777"/>
<rect x="10" y="16" width="18" height="4" rx="2" fill="#777777"/>
<rect x="157" y="61" width="155" height="41" fill="#E1E1E1" fill-opacity="0.25"/>
<rect x="172.5" y="68.5" width="29" height="13" fill="#000C18" stroke="#2B2B4A"/>
<rect x="176" y="73" width="7" height="4" rx="2" fill="white"/>
<rect x="187" y="73" width="12" height="4" rx="2" fill="white"/>
<path fill-rule="evenodd" clip-rule="evenodd" d="M201.344 83.2654C201.52 83.1426 201.51 82.8799 201.327 82.77L197.18 80.2905C196.961 80.1595 196.691 80.3492 196.739 80.5997L197.651 85.344C197.691 85.5542 197.935 85.653 198.11 85.5302L198.772 85.067C198.867 85.0002 198.914 84.8836 198.892 84.7693L198.602 83.2612C198.554 83.0106 198.825 82.821 199.044 82.952L200.362 83.7401C200.462 83.7999 200.588 83.7954 200.683 83.7286L201.344 83.2654Z" fill="white"/>
<rect x="200.5" y="84.5" width="4" height="2" stroke="white" stroke-dasharray="0.25 0.25"/>
</svg>
