<svg width="312" height="200" viewBox="0 0 312 200" fill="none" xmlns="http://www.w3.org/2000/svg">
<rect width="311.504" height="200" rx="5" fill="white"/>
<path d="M0 5C0 2.23858 2.23858 0 5 0H307C309.761 0 312 2.23858 312 5V11H0V5Z" fill="#DCDCDC"/>
<rect y="10" width="312" height="1" fill="#BABABA"/>
<rect y="11" width="156" height="189" fill="#A8A8A8"/>
<rect x="156" y="11" width="156" height="91" fill="#000C18"/>
<rect x="234" y="102" width="78" height="98" fill="#000C18"/>
<rect x="156" y="102" width="78" height="98" fill="#000C18"/>
<rect y="24" width="156" height="176" fill="#000C18"/>
<rect x="157" y="102" width="155" height="1" fill="#2B2B4A"/>
<rect width="1" height="189" transform="matrix(-1 0 0 1 157 11)" fill="#2B2B4A"/>
<path d="M234 103H233V200H234V103Z" fill="#2B2B4A"/>
<rect y="11" width="156" height="14" fill="#1C1C2A"/>
<rect y="11" width="30" height="14" fill="#10192C"/>
<rect x="31" y="11" width="30" height="14" fill="#10192C"/>
<rect x="62" y="11" width="30" height="14" fill="#000C18"/>
<rect x="30" y="11" width="1" height="14" fill="#2B2B4A"/>
<rect x="61" y="11" width="1" height="14" fill="#2B2B4A"/>
<rect x="92" y="11" width="1" height="14" fill="#2B2B4A"/>
<rect x="157" y="11" width="155" height="14" fill="#1C1C2A"/>
<rect x="157" y="11" width="30" height="14" fill="#10192C"/>
<rect x="188" y="11" width="30" height="14" fill="#000C18"/>
<rect x="187" y="11" width="1" height="14" fill="#2B2B4A"/>
<rect x="218" y="11" width="1" height="14" fill="#2B2B4A"/>
<rect x="234" y="103" width="78" height="14" fill="#1C1C2A"/>
<rect x="234" y="103" width="24" height="14" fill="#10192C"/>
<rect x="258" y="103" width="24" height="14" fill="#000C18"/>
<rect x="258" y="103" width="0.503226" height="14" fill="#2B2B4A"/>
<rect x="282" y="103" width="0.503226" height="14" fill="#2B2B4A"/>
<rect x="66" y="16" width="7" height="4" rx="2" fill="white"/>
<rect x="76" y="16" width="12" height="4" rx="2" fill="white"/>
<rect x="191" y="16" width="12" height="4" rx="2" fill="#777777"/>
<rect x="260" y="108" width="7" height="4" rx="2" fill="#777777"/>
<rect x="268" y="108" width="11" height="4" rx="2" fill="#777777"/>
<rect x="206" y="16" width="4" height="4" rx="2" fill="#777777"/>
<rect x="160" y="16" width="5" height="4" rx="2" fill="#282828"/>
<rect x="166" y="16" width="16" height="4" rx="2" fill="#282828"/>
<rect x="237" y="108" width="16" height="4" rx="2" fill="#282828"/>
<rect x="33" y="16" width="15" height="4" rx="2" fill="#777777"/>
<rect x="4" y="3" width="4" height="4" rx="2" fill="#FD605E"/>
<rect x="10" y="3" width="4" height="4" rx="2" fill="#FBBC3F"/>
<rect x="16" y="3" width="4" height="4" rx="2" fill="#34C942"/>
<rect x="2" y="16" width="6" height="4" rx="2" fill="#777777"/>
<rect x="10" y="16" width="18" height="4" rx="2" fill="#777777"/>
</svg>
