<svg xmlns="http://www.w3.org/2000/svg" width="312" height="200" fill="none" viewBox="0 0 312 200"><rect width="311.504" height="200" fill="#fff" rx="5"/><path fill="#DCDCDC" d="M0 5C0 2.23858 2.23858 0 5 0H307C309.761 0 312 2.23858 312 5V11H0V5Z"/><rect width="312" height="1" y="10" fill="#BABABA"/><rect width="156" height="189" y="11" fill="#A8A8A8"/><rect width="156" height="91" x="156" y="11" fill="#000C18"/><rect width="78" height="98" x="234" y="102" fill="#000C18"/><rect width="78" height="98" x="156" y="102" fill="#000C18"/><rect width="156" height="176" y="24" fill="#000C18"/><rect width="155" height="1" x="157" y="102" fill="#2B2B4A"/><rect width="1" height="189" fill="#2B2B4A" transform="matrix(-1 0 0 1 157 11)"/><path fill="#2B2B4A" d="M234 103H233V200H234V103Z"/><rect width="156" height="14" y="11" fill="#1C1C2A"/><rect width="30" height="14" y="11" fill="#10192C"/><rect width="30" height="14" x="31" y="11" fill="#10192C"/><rect width="30" height="14" x="62" y="11" fill="#000C18"/><rect width="1" height="14" x="30" y="11" fill="#2B2B4A"/><rect width="1" height="14" x="61" y="11" fill="#2B2B4A"/><rect width="1" height="14" x="92" y="11" fill="#2B2B4A"/><rect width="155" height="14" x="157" y="11" fill="#1C1C2A"/><rect width="30" height="14" x="157" y="11" fill="#10192C"/><rect width="30" height="14" x="188" y="11" fill="#000C18"/><rect width="1" height="14" x="187" y="11" fill="#2B2B4A"/><rect width="1" height="14" x="218" y="11" fill="#2B2B4A"/><rect width="78" height="14" x="234" y="103" fill="#1C1C2A"/><rect width="24" height="14" x="234" y="103" fill="#10192C"/><rect width="24" height="14" x="258" y="103" fill="#000C18"/><rect width=".503" height="14" x="258" y="103" fill="#2B2B4A"/><rect width=".503" height="14" x="282" y="103" fill="#2B2B4A"/><rect width="7" height="4" x="66" y="16" fill="#fff" rx="2"/><rect width="12" height="4" x="76" y="16" fill="#fff" rx="2"/><rect width="12" height="4" x="191" y="16" fill="#777" rx="2"/><rect width="7" height="4" x="260" y="108" fill="#777" rx="2"/><rect width="11" height="4" x="268" y="108" fill="#777" rx="2"/><rect width="4" height="4" x="206" y="16" fill="#777" rx="2"/><rect width="5" height="4" x="160" y="16" fill="#282828" rx="2"/><rect width="16" height="4" x="166" y="16" fill="#282828" rx="2"/><rect width="16" height="4" x="237" y="108" fill="#282828" rx="2"/><rect width="15" height="4" x="33" y="16" fill="#777" rx="2"/><rect width="4" height="4" x="4" y="3" fill="#FD605E" rx="2"/><rect width="4" height="4" x="10" y="3" fill="#FBBC3F" rx="2"/><rect width="4" height="4" x="16" y="3" fill="#34C942" rx="2"/><rect width="6" height="4" x="2" y="16" fill="#777" rx="2"/><rect width="18" height="4" x="10" y="16" fill="#777" rx="2"/><rect width="155" height="41" x="157" y="61" fill="#E1E1E1" fill-opacity=".25"/><rect width="29" height="13" x="172.5" y="68.5" fill="#000C18" stroke="#2B2B4A"/><rect width="7" height="4" x="176" y="73" fill="#fff" rx="2"/><rect width="12" height="4" x="187" y="73" fill="#fff" rx="2"/><path fill="#fff" fill-rule="evenodd" d="M201.344 83.2654C201.52 83.1426 201.51 82.8799 201.327 82.77L197.18 80.2905C196.961 80.1595 196.691 80.3492 196.739 80.5997L197.651 85.344C197.691 85.5542 197.935 85.653 198.11 85.5302L198.772 85.067C198.867 85.0002 198.914 84.8836 198.892 84.7693L198.602 83.2612C198.554 83.0106 198.825 82.821 199.044 82.952L200.362 83.7401C200.462 83.7999 200.588 83.7954 200.683 83.7286L201.344 83.2654Z" clip-rule="evenodd"/><rect width="4" height="2" x="200.5" y="84.5" stroke="#fff" stroke-dasharray=".25 .25"/></svg>