<svg xmlns="http://www.w3.org/2000/svg" width="312" height="200" fill="none" viewBox="0 0 312 200"><rect width="311.504" height="200" fill="#fff" rx="5"/><path fill="#DCDCDC" d="M0 5C0 2.23858 2.23858 0 5 0H307C309.761 0 312 2.23858 312 5V11H0V5Z"/><rect width="312" height="1" y="10" fill="#BABABA"/><rect width="156" height="189" y="11" fill="#A8A8A8"/><rect width="156" height="91" x="156" y="11" fill="#000C18"/><rect width="78" height="98" x="234" y="102" fill="#000C18"/><rect width="78" height="98" x="156" y="102" fill="#000C18"/><rect width="156" height="176" y="24" fill="#000C18"/><rect width="155" height="1" x="157" y="102" fill="#2B2B4A"/><rect width="1" height="189" fill="#2B2B4A" transform="matrix(-1 0 0 1 157 11)"/><path fill="#2B2B4A" d="M234 103H233V200H234V103Z"/><rect width="156" height="14" y="11" fill="#1C1C2A"/><rect width="30" height="14" y="11" fill="#10192C"/><rect width="30" height="14" x="31" y="11" fill="#10192C"/><rect width="30" height="14" x="62" y="11" fill="#000C18"/><rect width="1" height="14" x="30" y="11" fill="#2B2B4A"/><rect width="1" height="14" x="61" y="11" fill="#2B2B4A"/><rect width="1" height="14" x="92" y="11" fill="#2B2B4A"/><rect width="155" height="14" x="157" y="11" fill="#1C1C2A"/><rect width="30" height="14" x="157" y="11" fill="#10192C"/><rect width="30" height="14" x="188" y="11" fill="#000C18"/><rect width="1" height="14" x="187" y="11" fill="#2B2B4A"/><rect width="1" height="14" x="218" y="11" fill="#2B2B4A"/><rect width="78" height="14" x="234" y="103" fill="#1C1C2A"/><rect width="24" height="14" x="234" y="103" fill="#10192C"/><rect width="24" height="14" x="258" y="103" fill="#000C18"/><rect width=".503" height="14" x="258" y="103" fill="#2B2B4A"/><rect width=".503" height="14" x="282" y="103" fill="#2B2B4A"/><rect width="7" height="4" x="66" y="16" fill="#fff" rx="2"/><rect width="12" height="4" x="76" y="16" fill="#fff" rx="2"/><rect width="12" height="4" x="191" y="16" fill="#777" rx="2"/><rect width="7" height="4" x="260" y="108" fill="#777" rx="2"/><rect width="11" height="4" x="268" y="108" fill="#777" rx="2"/><rect width="4" height="4" x="206" y="16" fill="#777" rx="2"/><rect width="5" height="4" x="160" y="16" fill="#282828" rx="2"/><rect width="16" height="4" x="166" y="16" fill="#282828" rx="2"/><rect width="16" height="4" x="237" y="108" fill="#282828" rx="2"/><rect width="15" height="4" x="33" y="16" fill="#777" rx="2"/><rect width="4" height="4" x="4" y="3" fill="#FD605E" rx="2"/><rect width="4" height="4" x="10" y="3" fill="#FBBC3F" rx="2"/><rect width="4" height="4" x="16" y="3" fill="#34C942" rx="2"/><rect width="6" height="4" x="2" y="16" fill="#777" rx="2"/><rect width="18" height="4" x="10" y="16" fill="#777" rx="2"/><rect width="15" height="189" x="297" y="11" fill="#E1E1E1" fill-opacity=".25"/><rect width="48" height="13" x="90.5" y="18.5" fill="#000C18" stroke="#2B2B4A"/><path fill="#fff" fill-rule="evenodd" d="M140.344 22.2654C140.52 22.1426 140.51 21.8799 140.327 21.77L136.18 19.2905C135.961 19.1595 135.691 19.3492 135.739 19.5997L136.651 24.344C136.691 24.5542 136.935 24.653 137.11 24.5302L137.772 24.067C137.867 24.0002 137.914 23.8836 137.892 23.7693L137.602 22.2612C137.554 22.0106 137.825 21.821 138.044 21.952L139.362 22.7401C139.462 22.7999 139.588 22.7954 139.683 22.7286L140.344 22.2654Z" clip-rule="evenodd"/><rect width="4" height="2" x="139.5" y="23.5" stroke="#fff" stroke-dasharray=".25 .25"/><path fill="#fff" d="M97.3308 23.0909H97.7512L98.7399 25.5057H98.774L99.7626 23.0909H100.183V26H99.8535V23.7898H99.8251L98.916 26H98.5978L97.6887 23.7898H97.6603V26H97.3308V23.0909ZM102.219 25.108V23.8182H102.554V26H102.219V25.6307H102.196C102.145 25.7415 102.066 25.8357 101.958 25.9134C101.85 25.9901 101.713 26.0284 101.548 26.0284C101.412 26.0284 101.291 25.9986 101.185 25.9389C101.079 25.8783 100.995 25.7874 100.935 25.6662C100.874 25.544 100.844 25.3902 100.844 25.2045V23.8182H101.179V25.1818C101.179 25.3409 101.224 25.4678 101.313 25.5625C101.403 25.6572 101.517 25.7045 101.656 25.7045C101.74 25.7045 101.825 25.6832 101.911 25.6406C101.998 25.598 102.071 25.5327 102.129 25.4446C102.189 25.3565 102.219 25.2443 102.219 25.108ZM103.503 23.0909V26H103.168V23.0909H103.503ZM105.066 23.8182V24.1023H103.936V23.8182H105.066ZM104.265 23.2955H104.6V25.375C104.6 25.4697 104.614 25.5407 104.642 25.5881C104.67 25.6345 104.706 25.6657 104.749 25.6818C104.794 25.697 104.841 25.7045 104.89 25.7045C104.927 25.7045 104.957 25.7027 104.981 25.6989C105.005 25.6941 105.024 25.6903 105.038 25.6875L105.106 25.9886C105.083 25.9972 105.052 26.0057 105.011 26.0142C104.97 26.0237 104.919 26.0284 104.856 26.0284C104.761 26.0284 104.669 26.008 104.578 25.9673C104.488 25.9266 104.413 25.8646 104.353 25.7812C104.294 25.6979 104.265 25.5928 104.265 25.4659V23.2955ZM105.57 26V23.8182H105.906V26H105.57ZM105.741 23.4545C105.676 23.4545 105.619 23.4323 105.572 23.3878C105.526 23.3433 105.502 23.2898 105.502 23.2273C105.502 23.1648 105.526 23.1113 105.572 23.0668C105.619 23.0223 105.676 23 105.741 23C105.806 23 105.862 23.0223 105.909 23.0668C105.956 23.1113 105.98 23.1648 105.98 23.2273C105.98 23.2898 105.956 23.3433 105.909 23.3878C105.862 23.4323 105.806 23.4545 105.741 23.4545ZM106.52 26.8182V23.8182H106.844V24.1648H106.883C106.908 24.1269 106.942 24.0786 106.986 24.0199C107.03 23.9602 107.094 23.9072 107.176 23.8608C107.259 23.8134 107.372 23.7898 107.514 23.7898C107.698 23.7898 107.86 23.8357 108 23.9276C108.14 24.0194 108.249 24.1496 108.328 24.3182C108.407 24.4867 108.446 24.6856 108.446 24.9148C108.446 25.1458 108.407 25.3461 108.328 25.5156C108.249 25.6842 108.14 25.8149 108.001 25.9077C107.862 25.9995 107.702 26.0455 107.52 26.0455C107.38 26.0455 107.267 26.0223 107.183 25.9759C107.099 25.9285 107.034 25.875 106.988 25.8153C106.943 25.7547 106.908 25.7045 106.883 25.6648H106.855V26.8182H106.52ZM106.849 24.9091C106.849 25.0739 106.873 25.2192 106.922 25.3452C106.97 25.4702 107.041 25.5682 107.133 25.6392C107.226 25.7093 107.34 25.7443 107.474 25.7443C107.614 25.7443 107.731 25.7074 107.825 25.6335C107.92 25.5587 107.991 25.4583 108.038 25.3324C108.086 25.2055 108.111 25.0644 108.111 24.9091C108.111 24.7557 108.087 24.6174 108.04 24.4943C107.993 24.3703 107.923 24.2723 107.828 24.2003C107.734 24.1274 107.616 24.0909 107.474 24.0909C107.338 24.0909 107.223 24.1255 107.131 24.1946C107.038 24.2628 106.968 24.3584 106.92 24.4815C106.873 24.6037 106.849 24.7462 106.849 24.9091ZM109.292 23.0909V26H108.957V23.0909H109.292ZM110.821 26.0455C110.611 26.0455 110.43 25.9991 110.277 25.9062C110.126 25.8125 110.009 25.6818 109.926 25.5142C109.845 25.3456 109.804 25.1496 109.804 24.9261C109.804 24.7027 109.845 24.5057 109.926 24.3352C110.009 24.1638 110.123 24.0303 110.27 23.9347C110.418 23.8381 110.59 23.7898 110.787 23.7898C110.901 23.7898 111.013 23.8087 111.124 23.8466C111.235 23.8845 111.335 23.946 111.426 24.0312C111.517 24.1155 111.59 24.2273 111.644 24.3665C111.698 24.5057 111.725 24.6771 111.725 24.8807V25.0227H110.043V24.733H111.384C111.384 24.6098 111.359 24.5 111.31 24.4034C111.262 24.3068 111.192 24.2306 111.102 24.1747C111.013 24.1188 110.908 24.0909 110.787 24.0909C110.654 24.0909 110.538 24.1241 110.441 24.1903C110.344 24.2557 110.27 24.3409 110.218 24.446C110.165 24.5511 110.139 24.6638 110.139 24.7841V24.9773C110.139 25.142 110.168 25.2817 110.225 25.3963C110.282 25.5099 110.362 25.5966 110.465 25.6562C110.567 25.715 110.686 25.7443 110.821 25.7443C110.909 25.7443 110.989 25.732 111.06 25.7074C111.132 25.6818 111.194 25.6439 111.246 25.5938C111.298 25.5426 111.338 25.4792 111.367 25.4034L111.691 25.4943C111.656 25.6042 111.599 25.7008 111.519 25.7841C111.438 25.8665 111.339 25.9309 111.22 25.9773C111.102 26.0227 110.969 26.0455 110.821 26.0455ZM113.36 26.8182V23.8182H113.683V24.1648H113.723C113.748 24.1269 113.782 24.0786 113.825 24.0199C113.87 23.9602 113.933 23.9072 114.016 23.8608C114.099 23.8134 114.212 23.7898 114.354 23.7898C114.538 23.7898 114.7 23.8357 114.84 23.9276C114.98 24.0194 115.089 24.1496 115.168 24.3182C115.246 24.4867 115.286 24.6856 115.286 24.9148C115.286 25.1458 115.246 25.3461 115.168 25.5156C115.089 25.6842 114.98 25.8149 114.841 25.9077C114.702 25.9995 114.541 26.0455 114.36 26.0455C114.219 26.0455 114.107 26.0223 114.023 25.9759C113.939 25.9285 113.874 25.875 113.828 25.8153C113.783 25.7547 113.748 25.7045 113.723 25.6648H113.695V26.8182H113.36ZM113.689 24.9091C113.689 25.0739 113.713 25.2192 113.762 25.3452C113.81 25.4702 113.88 25.5682 113.973 25.6392C114.066 25.7093 114.18 25.7443 114.314 25.7443C114.454 25.7443 114.571 25.7074 114.665 25.6335C114.76 25.5587 114.831 25.4583 114.878 25.3324C114.926 25.2055 114.95 25.0644 114.95 24.9091C114.95 24.7557 114.927 24.6174 114.879 24.4943C114.833 24.3703 114.762 24.2723 114.668 24.2003C114.574 24.1274 114.456 24.0909 114.314 24.0909C114.178 24.0909 114.063 24.1255 113.97 24.1946C113.878 24.2628 113.807 24.3584 113.76 24.4815C113.713 24.6037 113.689 24.7462 113.689 24.9091ZM116.439 26.0511C116.301 26.0511 116.175 26.0251 116.063 25.973C115.95 25.92 115.86 25.8438 115.794 25.7443C115.728 25.6439 115.695 25.5227 115.695 25.3807C115.695 25.2557 115.719 25.1544 115.769 25.0767C115.818 24.9981 115.884 24.9366 115.966 24.892C116.048 24.8475 116.139 24.8144 116.239 24.7926C116.339 24.7699 116.44 24.7519 116.541 24.7386C116.674 24.7216 116.781 24.7088 116.864 24.7003C116.947 24.6908 117.008 24.6752 117.046 24.6534C117.084 24.6316 117.104 24.5937 117.104 24.5398V24.5284C117.104 24.3883 117.066 24.2794 116.989 24.2017C116.913 24.1241 116.798 24.0852 116.644 24.0852C116.484 24.0852 116.358 24.1203 116.267 24.1903C116.176 24.2604 116.112 24.3352 116.075 24.4148L115.757 24.3011C115.814 24.1686 115.89 24.0653 115.985 23.9915C116.08 23.9167 116.184 23.8646 116.297 23.8352C116.411 23.8049 116.522 23.7898 116.632 23.7898C116.702 23.7898 116.783 23.7983 116.874 23.8153C116.966 23.8314 117.054 23.8651 117.139 23.9162C117.226 23.9673 117.297 24.0445 117.354 24.1477C117.411 24.2509 117.439 24.3892 117.439 24.5625V26H117.104V25.7045H117.087C117.064 25.7519 117.026 25.8026 116.973 25.8565C116.92 25.9105 116.85 25.9564 116.762 25.9943C116.673 26.0322 116.566 26.0511 116.439 26.0511ZM116.49 25.75C116.623 25.75 116.735 25.724 116.825 25.6719C116.917 25.6198 116.986 25.5526 117.033 25.4702C117.08 25.3878 117.104 25.3011 117.104 25.2102V24.9034C117.09 24.9205 117.058 24.9361 117.01 24.9503C116.963 24.9635 116.908 24.9754 116.845 24.9858C116.784 24.9953 116.724 25.0038 116.665 25.0114C116.607 25.018 116.56 25.0237 116.524 25.0284C116.437 25.0398 116.356 25.0582 116.28 25.0838C116.205 25.1084 116.145 25.1458 116.098 25.196C116.053 25.2453 116.03 25.3125 116.03 25.3977C116.03 25.5142 116.073 25.6023 116.159 25.6619C116.246 25.7206 116.357 25.75 116.49 25.75ZM118.386 24.6875V26H118.051V23.8182H118.375V24.1591H118.403C118.454 24.0483 118.532 23.9593 118.636 23.892C118.74 23.8239 118.875 23.7898 119.04 23.7898C119.187 23.7898 119.317 23.8201 119.427 23.8807C119.538 23.9403 119.624 24.0312 119.686 24.1534C119.747 24.2746 119.778 24.428 119.778 24.6136V26H119.443V24.6364C119.443 24.465 119.398 24.3314 119.309 24.2358C119.22 24.1392 119.098 24.0909 118.943 24.0909C118.836 24.0909 118.74 24.1141 118.656 24.1605C118.573 24.2069 118.507 24.2746 118.459 24.3636C118.41 24.4527 118.386 24.5606 118.386 24.6875ZM121.306 26.0455C121.095 26.0455 120.914 25.9991 120.762 25.9062C120.61 25.8125 120.493 25.6818 120.411 25.5142C120.329 25.3456 120.289 25.1496 120.289 24.9261C120.289 24.7027 120.329 24.5057 120.411 24.3352C120.493 24.1638 120.608 24.0303 120.754 23.9347C120.902 23.8381 121.075 23.7898 121.271 23.7898C121.385 23.7898 121.497 23.8087 121.608 23.8466C121.719 23.8845 121.82 23.946 121.911 24.0312C122.002 24.1155 122.074 24.2273 122.128 24.3665C122.182 24.5057 122.209 24.6771 122.209 24.8807V25.0227H120.527V24.733H121.868C121.868 24.6098 121.843 24.5 121.794 24.4034C121.746 24.3068 121.677 24.2306 121.587 24.1747C121.498 24.1188 121.393 24.0909 121.271 24.0909C121.138 24.0909 121.022 24.1241 120.925 24.1903C120.828 24.2557 120.754 24.3409 120.702 24.446C120.65 24.5511 120.624 24.6638 120.624 24.7841V24.9773C120.624 25.142 120.652 25.2817 120.709 25.3963C120.767 25.5099 120.847 25.5966 120.949 25.6562C121.051 25.715 121.17 25.7443 121.306 25.7443C121.394 25.7443 121.473 25.732 121.544 25.7074C121.616 25.6818 121.678 25.6439 121.73 25.5938C121.782 25.5426 121.823 25.4792 121.851 25.4034L122.175 25.4943C122.141 25.6042 122.084 25.7008 122.003 25.7841C121.923 25.8665 121.823 25.9309 121.705 25.9773C121.586 26.0227 121.453 26.0455 121.306 26.0455ZM123.054 23.0909V26H122.719V23.0909H123.054ZM125.214 24.3068L124.912 24.392C124.894 24.3419 124.866 24.2931 124.829 24.2457C124.793 24.1974 124.743 24.1577 124.681 24.1264C124.618 24.0952 124.538 24.0795 124.441 24.0795C124.307 24.0795 124.196 24.1103 124.107 24.1719C124.019 24.2325 123.975 24.3097 123.975 24.4034C123.975 24.4867 124.005 24.5526 124.066 24.6009C124.126 24.6491 124.221 24.6894 124.35 24.7216L124.674 24.8011C124.869 24.8485 125.014 24.9209 125.11 25.0185C125.206 25.1151 125.253 25.2396 125.253 25.392C125.253 25.517 125.217 25.6288 125.145 25.7273C125.074 25.8258 124.975 25.9034 124.847 25.9602C124.719 26.017 124.571 26.0455 124.401 26.0455C124.179 26.0455 123.994 25.9972 123.849 25.9006C123.703 25.804 123.61 25.6629 123.572 25.4773L123.89 25.3977C123.92 25.5152 123.977 25.6032 124.062 25.6619C124.147 25.7206 124.258 25.75 124.395 25.75C124.552 25.75 124.676 25.7169 124.768 25.6506C124.86 25.5833 124.907 25.5028 124.907 25.4091C124.907 25.3333 124.88 25.2699 124.827 25.2188C124.774 25.1667 124.693 25.1278 124.583 25.1023L124.219 25.017C124.019 24.9697 123.873 24.8963 123.779 24.7969C123.686 24.6965 123.64 24.571 123.64 24.4205C123.64 24.2973 123.674 24.1884 123.743 24.0938C123.814 23.9991 123.909 23.9247 124.029 23.8707C124.15 23.8168 124.287 23.7898 124.441 23.7898C124.657 23.7898 124.826 23.8371 124.949 23.9318C125.073 24.0265 125.162 24.1515 125.214 24.3068ZM127.002 24.5455C127.002 24.1875 127.049 23.8584 127.142 23.5582C127.235 23.2571 127.369 22.9801 127.542 22.7273H127.838C127.769 22.821 127.705 22.9366 127.646 23.0739C127.587 23.2102 127.535 23.3603 127.491 23.5241C127.446 23.687 127.411 23.8556 127.386 24.0298C127.361 24.2041 127.349 24.3759 127.349 24.5455C127.349 24.7708 127.371 24.9995 127.414 25.2315C127.458 25.4635 127.517 25.679 127.59 25.8778C127.664 26.0767 127.747 26.2386 127.838 26.3636H127.542C127.369 26.1108 127.235 25.8343 127.142 25.5341C127.049 25.233 127.002 24.9034 127.002 24.5455ZM129.309 26.0398C129.122 26.0398 128.955 26.0076 128.808 25.9432C128.662 25.8788 128.546 25.7893 128.46 25.6747C128.375 25.5592 128.328 25.4252 128.321 25.2727H128.679C128.686 25.3665 128.719 25.4474 128.775 25.5156C128.832 25.5829 128.907 25.6349 128.998 25.6719C129.09 25.7088 129.192 25.7273 129.304 25.7273C129.429 25.7273 129.54 25.7055 129.636 25.6619C129.733 25.6184 129.809 25.5578 129.863 25.4801C129.918 25.4025 129.946 25.3125 129.946 25.2102C129.946 25.1032 129.919 25.009 129.866 24.9276C129.813 24.8452 129.736 24.7808 129.633 24.7344C129.531 24.688 129.406 24.6648 129.258 24.6648H129.025V24.3523H129.258C129.374 24.3523 129.475 24.3314 129.562 24.2898C129.65 24.2481 129.719 24.1894 129.768 24.1136C129.818 24.0379 129.844 23.9489 129.844 23.8466C129.844 23.7481 129.822 23.6624 129.778 23.5895C129.735 23.5166 129.673 23.4598 129.594 23.419C129.515 23.3783 129.422 23.358 129.315 23.358C129.215 23.358 129.12 23.3764 129.031 23.4134C128.943 23.4493 128.871 23.5019 128.815 23.571C128.759 23.6392 128.729 23.7216 128.724 23.8182H128.383C128.389 23.6657 128.435 23.5322 128.521 23.4176C128.607 23.3021 128.72 23.2121 128.859 23.1477C128.999 23.0833 129.153 23.0511 129.321 23.0511C129.501 23.0511 129.655 23.0876 129.784 23.1605C129.913 23.2325 130.012 23.3277 130.081 23.446C130.15 23.5644 130.184 23.6922 130.184 23.8295C130.184 23.9934 130.141 24.133 130.055 24.2486C129.97 24.3641 129.854 24.4441 129.707 24.4886V24.5114C129.891 24.5417 130.034 24.6198 130.138 24.7457C130.241 24.8707 130.292 25.0256 130.292 25.2102C130.292 25.3684 130.249 25.5104 130.163 25.6364C130.078 25.7614 129.961 25.8598 129.814 25.9318C129.666 26.0038 129.498 26.0398 129.309 26.0398ZM131.595 24.5455C131.595 24.9034 131.548 25.233 131.454 25.5341C131.362 25.8343 131.229 26.1108 131.055 26.3636H130.76C130.828 26.2699 130.891 26.1544 130.95 26.017C131.01 25.8807 131.062 25.7311 131.106 25.5682C131.151 25.4044 131.185 25.2353 131.21 25.0611C131.236 24.8859 131.248 24.714 131.248 24.5455C131.248 24.3201 131.227 24.0914 131.183 23.8594C131.14 23.6274 131.081 23.4119 131.007 23.2131C130.933 23.0142 130.851 22.8523 130.76 22.7273H131.055C131.229 22.9801 131.362 23.2571 131.454 23.5582C131.548 23.8584 131.595 24.1875 131.595 24.5455Z"/><rect width="29" height="13" x="279.5" y="46.5" fill="#000C18" stroke="#2B2B4A"/><rect width="7" height="4" x="283" y="51" fill="#fff" rx="2"/><rect width="12" height="4" x="294" y="51" fill="#fff" rx="2"/><path fill="#fff" fill-rule="evenodd" d="M305.344 61.2654C305.52 61.1426 305.51 60.8799 305.327 60.77L301.18 58.2905C300.961 58.1595 300.691 58.3492 300.739 58.5997L301.651 63.344C301.691 63.5542 301.935 63.653 302.11 63.5302L302.772 63.067C302.867 63.0002 302.914 62.8836 302.892 62.7693L302.602 61.2612C302.554 61.0106 302.825 60.821 303.044 60.952L304.362 61.7401C304.462 61.7999 304.588 61.7954 304.683 61.7286L305.344 61.2654Z" clip-rule="evenodd"/><rect width="4" height="2" x="304.5" y="62.5" stroke="#fff" stroke-dasharray=".25 .25"/><rect width="76" height="47" x="157" y="153" fill="#E1E1E1" fill-opacity=".25"/><rect width="29" height="13" x="180.5" y="163.5" fill="#000C18" stroke="#2B2B4A"/><rect width="7" height="4" x="184" y="168" fill="#fff" rx="2"/><rect width="12" height="4" x="195" y="168" fill="#fff" rx="2"/><path fill="#fff" fill-rule="evenodd" d="M194.344 176.265C194.52 176.143 194.51 175.88 194.327 175.77L190.18 173.29C189.961 173.16 189.691 173.349 189.739 173.6L190.651 178.344C190.691 178.554 190.935 178.653 191.11 178.53L191.772 178.067C191.867 178 191.914 177.884 191.892 177.769L191.602 176.261C191.554 176.011 191.825 175.821 192.044 175.952L193.362 176.74C193.462 176.8 193.588 176.795 193.683 176.729L194.344 176.265Z" clip-rule="evenodd"/><rect width="4" height="2" x="193.5" y="177.5" stroke="#fff" stroke-dasharray=".25 .25"/></svg>