<svg xmlns="http://www.w3.org/2000/svg" width="232" height="232" fill="none" viewBox="0 0 232 232"><g filter="url(#filter0_i_9_129)"><path fill="url(#paint0_linear_9_129)" d="M186.777 80.7107L151.421 116.066L84.2462 48.8909C82.2936 46.9383 82.2936 43.7724 84.2462 41.8198L98.3883 27.6777C108.151 17.9146 123.981 17.9146 133.744 27.6777L186.777 80.7107Z"/></g><g filter="url(#filter1_i_9_129)"><path fill="url(#paint1_linear_9_129)" d="M186.777 151.421L151.421 116.066L84.2462 183.241C82.2936 185.194 82.2936 188.36 84.2462 190.312L98.3883 204.454C108.151 214.218 123.981 214.218 133.744 204.454L186.777 151.421Z"/></g><g filter="url(#filter2_i_9_129)"><path fill="url(#paint2_linear_9_129)" fill-rule="evenodd" d="M204.454 133.744L186.777 151.421L169.099 133.744L151.421 116.066L169.099 98.3884C178.862 88.6253 178.862 72.7961 169.099 63.033L186.777 80.7107L204.454 98.3884C214.217 108.151 214.217 123.981 204.454 133.744Z" clip-rule="evenodd"/></g><rect width="50" height="192" x="20" y="20" fill="url(#paint3_linear_9_129)" rx="15"/><defs><filter id="filter0_i_9_129" width="103.995" height="99.711" x="82.782" y="20.355" color-interpolation-filters="sRGB" filterUnits="userSpaceOnUse"><feFlood flood-opacity="0" result="BackgroundImageFix"/><feBlend in="SourceGraphic" in2="BackgroundImageFix" mode="normal" result="shape"/><feColorMatrix in="SourceAlpha" result="hardAlpha" type="matrix" values="0 0 0 0 0 0 0 0 0 0 0 0 0 0 0 0 0 0 127 0"/><feOffset dy="4"/><feGaussianBlur stdDeviation="2"/><feComposite in2="hardAlpha" k2="-1" k3="1" operator="arithmetic"/><feColorMatrix type="matrix" values="0 0 0 0 0 0 0 0 0 0 0 0 0 0 0 0 0 0 0.25 0"/><feBlend in2="shape" mode="normal" result="effect1_innerShadow_9_129"/></filter><filter id="filter1_i_9_129" width="103.995" height="99.711" x="82.782" y="116.066" color-interpolation-filters="sRGB" filterUnits="userSpaceOnUse"><feFlood flood-opacity="0" result="BackgroundImageFix"/><feBlend in="SourceGraphic" in2="BackgroundImageFix" mode="normal" result="shape"/><feColorMatrix in="SourceAlpha" result="hardAlpha" type="matrix" values="0 0 0 0 0 0 0 0 0 0 0 0 0 0 0 0 0 0 127 0"/><feOffset dy="4"/><feGaussianBlur stdDeviation="2"/><feComposite in2="hardAlpha" k2="-1" k3="1" operator="arithmetic"/><feColorMatrix type="matrix" values="0 0 0 0 0 0 0 0 0 0 0 0 0 0 0 0 0 0 0.25 0"/><feBlend in2="shape" mode="normal" result="effect1_innerShadow_9_129"/></filter><filter id="filter2_i_9_129" width="60.355" height="92.388" x="151.421" y="63.033" color-interpolation-filters="sRGB" filterUnits="userSpaceOnUse"><feFlood flood-opacity="0" result="BackgroundImageFix"/><feBlend in="SourceGraphic" in2="BackgroundImageFix" mode="normal" result="shape"/><feColorMatrix in="SourceAlpha" result="hardAlpha" type="matrix" values="0 0 0 0 0 0 0 0 0 0 0 0 0 0 0 0 0 0 127 0"/><feOffset dy="4"/><feGaussianBlur stdDeviation="2"/><feComposite in2="hardAlpha" k2="-1" k3="1" operator="arithmetic"/><feColorMatrix type="matrix" values="0 0 0 0 0 0 0 0 0 0 0 0 0 0 0 0 0 0 0.25 0"/><feBlend in2="shape" mode="normal" result="effect1_innerShadow_9_129"/></filter><linearGradient id="paint0_linear_9_129" x1="186.777" x2="80.711" y1="80.711" y2="45.355" gradientUnits="userSpaceOnUse"><stop stop-color="#0469C2"/><stop offset="1" stop-color="#034DC3"/></linearGradient><linearGradient id="paint1_linear_9_129" x1="186.777" x2="80.711" y1="151.421" y2="186.777" gradientUnits="userSpaceOnUse"><stop offset=".001" stop-color="#38AFF5"/><stop offset="1" stop-color="#069CEF"/></linearGradient><linearGradient id="paint2_linear_9_129" x1="222.132" x2="151.421" y1="116.066" y2="116.066" gradientUnits="userSpaceOnUse"><stop stop-color="#10B1EE"/><stop offset="1" stop-color="#0B8CE7"/></linearGradient><linearGradient id="paint3_linear_9_129" x1="45" x2="69.862" y1="20" y2="211.48" gradientUnits="userSpaceOnUse"><stop stop-color="#18A3F2"/><stop offset="1" stop-color="#0349AB"/></linearGradient></defs></svg>