<svg width="312" height="200" viewBox="0 0 312 200" fill="none" xmlns="http://www.w3.org/2000/svg">
<rect width="311.504" height="200" rx="5" fill="white"/>
<path d="M0 5C0 2.23858 2.23858 0 5 0H307C309.761 0 312 2.23858 312 5V11H0V5Z" fill="#DCDCDC"/>
<rect y="10" width="312" height="1" fill="#BABABA"/>
<rect y="11" width="156" height="189" fill="#A8A8A8"/>
<rect x="188" y="11" width="124" height="91" fill="#000C18"/>
<rect x="188" y="102" width="124" height="98" fill="#000C18"/>
<rect y="24" width="187" height="176" fill="#000C18"/>
<rect x="188" y="102" width="124" height="1" fill="#2B2B4A"/>
<rect width="1" height="189" transform="matrix(-1 0 0 1 188 11)" fill="#2B2B4A"/>
<rect y="11" width="187" height="14" fill="#1C1C2A"/>
<rect y="11" width="35.9615" height="14" fill="#10192C"/>
<rect x="37.1603" y="11" width="35.9615" height="14" fill="#10192C"/>
<rect x="74.3205" y="11" width="35.9615" height="14" fill="#000C18"/>
<rect x="35.9615" y="11" width="1.19872" height="14" fill="#2B2B4A"/>
<rect x="73.1218" y="11" width="1.19872" height="14" fill="#2B2B4A"/>
<rect x="110.282" y="11" width="1.19872" height="14" fill="#2B2B4A"/>
<rect x="188" y="11" width="124" height="14" fill="#1C1C2A"/>
<rect x="188" y="11" width="30" height="14" fill="#10192C"/>
<rect x="219" y="11" width="30" height="14" fill="#000C18"/>
<rect x="218" y="11" width="1" height="14" fill="#2B2B4A"/>
<rect x="249" y="11" width="1" height="14" fill="#2B2B4A"/>
<rect x="188" y="103" width="124" height="14" fill="#1C1C2A"/>
<rect x="188" y="103" width="24" height="14" fill="#10192C"/>
<rect x="212" y="103" width="24" height="14" fill="#000C18"/>
<rect x="212" y="103" width="0.503226" height="14" fill="#2B2B4A"/>
<rect x="236" y="103" width="0.503226" height="14" fill="#2B2B4A"/>
<path d="M76 18C76 16.8954 76.8954 16 78 16H81C82.1046 16 83 16.8954 83 18V18C83 19.1046 82.1046 20 81 20H78C76.8954 20 76 19.1046 76 18V18Z" fill="white"/>
<rect x="85" y="16" width="12" height="4" rx="2" fill="white"/>
<rect x="222" y="16" width="12" height="4" rx="2" fill="#777777"/>
<rect x="214" y="108" width="7" height="4" rx="2" fill="#777777"/>
<rect x="222" y="108" width="11" height="4" rx="2" fill="#777777"/>
<rect x="237" y="16" width="4" height="4" rx="2" fill="#777777"/>
<rect x="191" y="16" width="5" height="4" rx="2" fill="#282828"/>
<rect x="197" y="16" width="16" height="4" rx="2" fill="#282828"/>
<rect x="191" y="108" width="16" height="4" rx="2" fill="#282828"/>
<path d="M39 18C39 16.8954 39.8954 16 41 16H52C53.1046 16 54 16.8954 54 18V18C54 19.1046 53.1046 20 52 20H41C39.8954 20 39 19.1046 39 18V18Z" fill="#777777"/>
<rect x="4" y="3" width="4" height="4" rx="2" fill="#FD605E"/>
<rect x="10" y="3" width="4" height="4" rx="2" fill="#FBBC3F"/>
<rect x="16" y="3" width="4" height="4" rx="2" fill="#34C942"/>
<rect x="2" y="16" width="6" height="4" rx="2" fill="#777777"/>
<rect x="10" y="16" width="18" height="4" rx="2" fill="#777777"/>
<rect x="173" y="11" width="14" height="14" fill="#10192C"/>
<circle cx="176" cy="18" r="1" transform="rotate(-90 176 18)" fill="white"/>
<circle cx="184" cy="18" r="1" transform="rotate(-90 184 18)" fill="white"/>
<circle cx="180" cy="18" r="1" transform="rotate(-90 180 18)" fill="white"/>
<rect x="298" y="11" width="14" height="14" fill="#10192C"/>
<circle cx="301" cy="18" r="1" transform="rotate(-90 301 18)" fill="white"/>
<circle cx="309" cy="18" r="1" transform="rotate(-90 309 18)" fill="white"/>
<circle cx="305" cy="18" r="1" transform="rotate(-90 305 18)" fill="white"/>
<rect x="111" y="11" width="14" height="14" fill="#10192C"/>
<rect x="117.333" y="14" width="1.33333" height="8" rx="0.666667" fill="white"/>
<rect x="114" y="18.6665" width="1.33333" height="8" rx="0.666667" transform="rotate(-90 114 18.6665)" fill="white"/>
<rect x="298" y="103" width="14" height="14" fill="#10192C"/>
<circle cx="301" cy="110" r="1" transform="rotate(-90 301 110)" fill="white"/>
<circle cx="309" cy="110" r="1" transform="rotate(-90 309 110)" fill="white"/>
<circle cx="305" cy="110" r="1" transform="rotate(-90 305 110)" fill="white"/>
<rect x="285" y="103" width="14" height="14" fill="#10192C"/>
<rect x="288.5" y="106.5" width="7" height="7" rx="1.5" stroke="white"/>
<rect x="288" y="109" width="8" height="2" fill="white"/>
<g opacity="0.35">
<rect x="40" y="45" width="128.769" height="91" fill="#000C18"/>
<rect x="40" y="136" width="128.769" height="1" fill="#2B2B4A"/>
<rect x="40" y="45" width="128.769" height="14" fill="#1C1C2A"/>
<rect x="40" y="45" width="31.1538" height="14" fill="#10192C"/>
<rect x="72.1923" y="45" width="31.1538" height="14" fill="#000C18"/>
<rect x="71.1538" y="45" width="1.03846" height="14" fill="#2B2B4A"/>
<rect x="40" y="45" width="1" height="92" fill="#2B2B4A"/>
<rect x="168" y="45" width="1" height="92" fill="#2B2B4A"/>
<rect x="103.346" y="45" width="1.03846" height="14" fill="#2B2B4A"/>
<rect x="75.3077" y="50" width="12.4615" height="4" rx="2" fill="#777777"/>
<rect x="90.8846" y="50" width="4.15385" height="4" rx="2" fill="#777777"/>
<rect x="43.1154" y="50" width="5.19231" height="4" rx="2" fill="#282828"/>
<rect x="49.3461" y="50" width="16.6154" height="4" rx="2" fill="#282828"/>
<rect x="40" y="45" width="128.769" height="1" fill="#2B2B4A"/>
</g>
<rect x="29" y="54" width="128.769" height="91" fill="#000C18"/>
<rect x="29" y="145" width="128.769" height="1" fill="#2B2B4A"/>
<rect x="29" y="54" width="128.769" height="14" fill="#1C1C2A"/>
<rect x="29" y="54" width="31.1538" height="14" fill="#10192C"/>
<rect x="61.1923" y="54" width="31.1538" height="14" fill="#000C18"/>
<rect x="60.1538" y="54" width="1.03846" height="14" fill="#2B2B4A"/>
<rect x="29" y="54" width="1" height="92" fill="#2B2B4A"/>
<rect x="157" y="54" width="1" height="92" fill="#2B2B4A"/>
<rect x="92.3461" y="54" width="1.03846" height="14" fill="#2B2B4A"/>
<rect x="64.3077" y="59" width="12.4615" height="4" rx="2" fill="#777777"/>
<rect x="79.8846" y="59" width="4.15385" height="4" rx="2" fill="#777777"/>
<rect x="32.1154" y="59" width="5.19231" height="4" rx="2" fill="#282828"/>
<rect x="38.3461" y="59" width="16.6154" height="4" rx="2" fill="#282828"/>
<rect x="29" y="54" width="128.769" height="1" fill="#2B2B4A"/>
<path fill-rule="evenodd" clip-rule="evenodd" d="M128.344 61.2654C128.52 61.1426 128.51 60.8799 128.327 60.77L124.18 58.2905C123.961 58.1595 123.691 58.3492 123.739 58.5997L124.651 63.344C124.691 63.5542 124.935 63.653 125.11 63.5302L125.772 63.067C125.867 63.0002 125.914 62.8836 125.892 62.7693L125.602 61.2612C125.554 61.0106 125.825 60.821 126.044 60.952L127.362 61.7401C127.462 61.7999 127.588 61.7954 127.683 61.7286L128.344 61.2654Z" fill="white"/>
<rect x="127.5" y="62.5" width="4" height="2" stroke="white" stroke-dasharray="0.25 0.25"/>
</svg>
