<svg xmlns="http://www.w3.org/2000/svg" width="156" height="76" fill="none" viewBox="0 0 156 76"><rect width="156" height="62" y="14" fill="#000C18"/><rect width="156" height="14" fill="#1C1C2A"/><rect width="30" height="14" fill="#10192C"/><rect width="30" height="14" x="31" fill="#10192C"/><rect width="1" height="14" x="30" fill="#2B2B4A"/><rect width="1" height="14" x="61" fill="#2B2B4A"/><rect width="30" height="14" x="41" y="54" fill="#000C18"/><rect width="15" height="4" x="33" y="5" fill="#777" rx="2"/><rect width="6" height="4" x="2" y="5" fill="#777" rx="2"/><rect width="18" height="4" x="10" y="5" fill="#777" rx="2"/><g opacity=".3"><rect width="83" height="37" x="28.5" y="20.5" fill="#000C18" stroke="#2B2B4A"/><rect width="51" height="14" x="60" y="21" fill="#1C1C2A"/><rect width="12" height="4" x="43" y="26" fill="#fff" rx="2"/><rect width="7" height="4" x="33" y="26" fill="#fff" rx="2"/><rect width="1" height="14" x="59" y="21" fill="#2B2B4A"/></g><rect width="83" height="38" x="11.5" y="29.5" fill="#000C18" stroke="#2B2B4A"/><rect width="51" height="14" x="43" y="30" fill="#1C1C2A"/><rect width="12" height="4" x="26" y="35" fill="#fff" rx="2"/><rect width="7" height="4" x="16" y="35" fill="#fff" rx="2"/><rect width="1" height="14" x="42" y="30" fill="#2B2B4A"/><path fill="#fff" fill-rule="evenodd" d="M70.3445 58.2654C70.5198 58.1426 70.5104 57.8799 70.3266 57.77L66.1804 55.2905C65.9614 55.1595 65.6906 55.3492 65.7388 55.5997L66.6506 60.344C66.691 60.5542 66.9347 60.653 67.1101 60.5302L67.7716 60.067C67.8669 60.0002 67.9142 59.8836 67.8922 59.7693L67.6024 58.2612C67.5542 58.0106 67.825 57.821 68.044 57.952L69.362 58.7401C69.4619 58.7999 69.5876 58.7954 69.683 58.7286L70.3445 58.2654Z" clip-rule="evenodd"/><rect width="4" height="2" x="69.5" y="59.5" stroke="#fff" stroke-dasharray=".25 .25"/><path fill="#fff" fill-rule="evenodd" d="M77.3445 37.2654C77.5198 37.1426 77.5104 36.8799 77.3266 36.77L73.1804 34.2905C72.9614 34.1595 72.6906 34.3492 72.7388 34.5997L73.6506 39.344C73.691 39.5542 73.9347 39.653 74.1101 39.5302L74.7716 39.067C74.8669 39.0002 74.9142 38.8836 74.8922 38.7693L74.6024 37.2612C74.5542 37.0106 74.825 36.821 75.044 36.952L76.362 37.7401C76.4619 37.7999 76.5876 37.7954 76.683 37.7286L77.3445 37.2654Z" clip-rule="evenodd"/><rect width="4" height="2" x="76.5" y="38.5" stroke="#fff" stroke-dasharray=".25 .25"/><path fill="#fff" d="M70.9414 54.4746V54.8145H68.9922V54.4746H70.9414ZM70.1484 53.6445V55.7148H69.7871V53.6445H70.1484ZM73.9473 55.2812C73.9473 55.2148 73.9368 55.1562 73.916 55.1055C73.8965 55.0534 73.8613 55.0065 73.8105 54.9648C73.7611 54.9232 73.6921 54.8835 73.6035 54.8457C73.5163 54.8079 73.4056 54.7695 73.2715 54.7305C73.1309 54.6888 73.0039 54.6426 72.8906 54.5918C72.7773 54.5397 72.6803 54.4805 72.5996 54.4141C72.5189 54.3477 72.457 54.2715 72.4141 54.1855C72.3711 54.0996 72.3496 54.0013 72.3496 53.8906C72.3496 53.7799 72.3724 53.6777 72.418 53.584C72.4635 53.4902 72.5286 53.4089 72.6133 53.3398C72.6992 53.2695 72.8014 53.2148 72.9199 53.1758C73.0384 53.1367 73.1706 53.1172 73.3164 53.1172C73.5299 53.1172 73.7109 53.1582 73.8594 53.2402C74.0091 53.321 74.123 53.4271 74.2012 53.5586C74.2793 53.6888 74.3184 53.8281 74.3184 53.9766H73.9434C73.9434 53.8698 73.9206 53.7754 73.875 53.6934C73.8294 53.61 73.7604 53.5449 73.668 53.498C73.5755 53.4499 73.4583 53.4258 73.3164 53.4258C73.1823 53.4258 73.0716 53.446 72.9844 53.4863C72.8971 53.5267 72.832 53.5814 72.7891 53.6504C72.7474 53.7194 72.7266 53.7982 72.7266 53.8867C72.7266 53.9466 72.7389 54.0013 72.7637 54.0508C72.7897 54.099 72.8294 54.1439 72.8828 54.1855C72.9375 54.2272 73.0065 54.2656 73.0898 54.3008C73.1745 54.3359 73.2754 54.3698 73.3926 54.4023C73.554 54.4479 73.6934 54.4987 73.8105 54.5547C73.9277 54.6107 74.0241 54.6738 74.0996 54.7441C74.1764 54.8132 74.2331 54.8919 74.2695 54.9805C74.3073 55.0677 74.3262 55.1667 74.3262 55.2773C74.3262 55.3932 74.3027 55.498 74.2559 55.5918C74.209 55.6855 74.1419 55.7656 74.0547 55.832C73.9674 55.8984 73.8626 55.9499 73.7402 55.9863C73.6191 56.0215 73.4837 56.0391 73.334 56.0391C73.2025 56.0391 73.0729 56.0208 72.9453 55.9844C72.819 55.9479 72.7038 55.8932 72.5996 55.8203C72.4967 55.7474 72.4141 55.6576 72.3516 55.5508C72.2904 55.4427 72.2598 55.3177 72.2598 55.1758H72.6348C72.6348 55.2734 72.6536 55.3574 72.6914 55.4277C72.7292 55.4967 72.7806 55.554 72.8457 55.5996C72.9121 55.6452 72.987 55.679 73.0703 55.7012C73.1549 55.722 73.2428 55.7324 73.334 55.7324C73.4655 55.7324 73.5768 55.7142 73.668 55.6777C73.7591 55.6413 73.8281 55.5892 73.875 55.5215C73.9232 55.4538 73.9473 55.3737 73.9473 55.2812ZM76.6641 54.3789V54.6855H75.125V54.3789H76.6641ZM75.1836 53.1562V56H74.8066V53.1562H75.1836ZM76.9922 53.1562V56H76.6172V53.1562H76.9922ZM78.0664 53.1562V56H77.6895V53.1562H78.0664ZM79.1289 53.1562V56H78.752V53.1562H79.1289ZM80.3203 54.4355V54.7441H79.0469V54.4355H80.3203ZM80.5137 53.1562V53.4648H79.0469V53.1562H80.5137ZM82.0527 53.1562V56H81.6816V53.1562H82.0527ZM82.9668 53.1562V53.4648H80.7695V53.1562H82.9668ZM84.6797 53.1562V56H84.3027V53.1562H84.6797ZM86.3965 53.1562L85.2148 54.4824L84.5508 55.1719L84.4883 54.7695L84.9883 54.2188L85.9434 53.1562H86.3965ZM86.0332 56L84.9805 54.6133L85.2051 54.3145L86.4824 56H86.0332ZM88.6211 55.6934V56H87.1152V55.6934H88.6211ZM87.1914 53.1562V56H86.8145V53.1562H87.1914ZM88.4219 54.3789V54.6855H87.1152V54.3789H88.4219ZM88.6016 53.1562V53.4648H87.1152V53.1562H88.6016ZM89.2188 53.1562L89.957 54.584L90.6973 53.1562H91.125L90.1445 54.9375V56H89.7676V54.9375L88.7871 53.1562H89.2188Z"/></svg>