<svg width="156" height="76" viewBox="0 0 156 76" fill="none" xmlns="http://www.w3.org/2000/svg">
<rect y="14" width="156" height="62" fill="#000C18"/>
<rect width="156" height="14" fill="#1C1C2A"/>
<rect width="30" height="14" fill="#10192C"/>
<rect x="31" width="30" height="14" fill="#10192C"/>
<rect x="30" width="1" height="14" fill="#2B2B4A"/>
<rect x="61" width="1" height="14" fill="#2B2B4A"/>
<rect x="41" y="54" width="30" height="14" fill="#000C18"/>
<rect x="33" y="5" width="15" height="4" rx="2" fill="#777777"/>
<rect x="2" y="5" width="6" height="4" rx="2" fill="#777777"/>
<rect x="10" y="5" width="18" height="4" rx="2" fill="#777777"/>
<rect x="11.5" y="29.5" width="83" height="33" fill="#000C18" stroke="#2B2B4A"/>
<rect x="43" y="30" width="51" height="14" fill="#1C1C2A"/>
<rect x="26" y="35" width="12" height="4" rx="2" fill="white"/>
<rect x="16" y="35" width="7" height="4" rx="2" fill="white"/>
<rect x="42" y="30" width="1" height="14" fill="#2B2B4A"/>
<path d="M85.9414 34.4746V34.8145H83.9922V34.4746H85.9414ZM85.1484 33.6445V35.7148H84.7871V33.6445H85.1484ZM88.9473 35.2812C88.9473 35.2148 88.9368 35.1562 88.916 35.1055C88.8965 35.0534 88.8613 35.0065 88.8105 34.9648C88.7611 34.9232 88.6921 34.8835 88.6035 34.8457C88.5163 34.8079 88.4056 34.7695 88.2715 34.7305C88.1309 34.6888 88.0039 34.6426 87.8906 34.5918C87.7773 34.5397 87.6803 34.4805 87.5996 34.4141C87.5189 34.3477 87.457 34.2715 87.4141 34.1855C87.3711 34.0996 87.3496 34.0013 87.3496 33.8906C87.3496 33.7799 87.3724 33.6777 87.418 33.584C87.4635 33.4902 87.5286 33.4089 87.6133 33.3398C87.6992 33.2695 87.8014 33.2148 87.9199 33.1758C88.0384 33.1367 88.1706 33.1172 88.3164 33.1172C88.5299 33.1172 88.7109 33.1582 88.8594 33.2402C89.0091 33.321 89.123 33.4271 89.2012 33.5586C89.2793 33.6888 89.3184 33.8281 89.3184 33.9766H88.9434C88.9434 33.8698 88.9206 33.7754 88.875 33.6934C88.8294 33.61 88.7604 33.5449 88.668 33.498C88.5755 33.4499 88.4583 33.4258 88.3164 33.4258C88.1823 33.4258 88.0716 33.446 87.9844 33.4863C87.8971 33.5267 87.832 33.5814 87.7891 33.6504C87.7474 33.7194 87.7266 33.7982 87.7266 33.8867C87.7266 33.9466 87.7389 34.0013 87.7637 34.0508C87.7897 34.099 87.8294 34.1439 87.8828 34.1855C87.9375 34.2272 88.0065 34.2656 88.0898 34.3008C88.1745 34.3359 88.2754 34.3698 88.3926 34.4023C88.554 34.4479 88.6934 34.4987 88.8105 34.5547C88.9277 34.6107 89.0241 34.6738 89.0996 34.7441C89.1764 34.8132 89.2331 34.8919 89.2695 34.9805C89.3073 35.0677 89.3262 35.1667 89.3262 35.2773C89.3262 35.3932 89.3027 35.498 89.2559 35.5918C89.209 35.6855 89.1419 35.7656 89.0547 35.832C88.9674 35.8984 88.8626 35.9499 88.7402 35.9863C88.6191 36.0215 88.4837 36.0391 88.334 36.0391C88.2025 36.0391 88.0729 36.0208 87.9453 35.9844C87.819 35.9479 87.7038 35.8932 87.5996 35.8203C87.4967 35.7474 87.4141 35.6576 87.3516 35.5508C87.2904 35.4427 87.2598 35.3177 87.2598 35.1758H87.6348C87.6348 35.2734 87.6536 35.3574 87.6914 35.4277C87.7292 35.4967 87.7806 35.554 87.8457 35.5996C87.9121 35.6452 87.987 35.679 88.0703 35.7012C88.1549 35.722 88.2428 35.7324 88.334 35.7324C88.4655 35.7324 88.5768 35.7142 88.668 35.6777C88.7591 35.6413 88.8281 35.5892 88.875 35.5215C88.9232 35.4538 88.9473 35.3737 88.9473 35.2812ZM91.6641 34.3789V34.6855H90.125V34.3789H91.6641ZM90.1836 33.1562V36H89.8066V33.1562H90.1836ZM91.9922 33.1562V36H91.6172V33.1562H91.9922ZM93.0664 33.1562V36H92.6895V33.1562H93.0664ZM94.1289 33.1562V36H93.752V33.1562H94.1289ZM95.3203 34.4355V34.7441H94.0469V34.4355H95.3203ZM95.5137 33.1562V33.4648H94.0469V33.1562H95.5137ZM97.0527 33.1562V36H96.6816V33.1562H97.0527ZM97.9668 33.1562V33.4648H95.7695V33.1562H97.9668ZM99.6797 33.1562V36H99.3027V33.1562H99.6797ZM101.396 33.1562L100.215 34.4824L99.5508 35.1719L99.4883 34.7695L99.9883 34.2188L100.943 33.1562H101.396ZM101.033 36L99.9805 34.6133L100.205 34.3145L101.482 36H101.033ZM103.621 35.6934V36H102.115V35.6934H103.621ZM102.191 33.1562V36H101.814V33.1562H102.191ZM103.422 34.3789V34.6855H102.115V34.3789H103.422ZM103.602 33.1562V33.4648H102.115V33.1562H103.602ZM104.219 33.1562L104.957 34.584L105.697 33.1562H106.125L105.145 34.9375V36H104.768V34.9375L103.787 33.1562H104.219Z" fill="white"/>
<rect x="43" y="30" width="30" height="14" fill="#10192C"/>
<rect x="45" y="35" width="15" height="4" rx="2" fill="#777777"/>
<rect x="82.5" y="37.5" width="48" height="13" fill="#000C18" stroke="#2B2B4A"/>
<path d="M89.3308 42.0909H89.7512L90.7399 44.5057H90.774L91.7626 42.0909H92.1831V45H91.8535V42.7898H91.8251L90.916 45H90.5978L89.6887 42.7898H89.6603V45H89.3308V42.0909ZM94.2189 44.108V42.8182H94.5542V45H94.2189V44.6307H94.1962C94.1451 44.7415 94.0655 44.8357 93.9576 44.9134C93.8496 44.9901 93.7132 45.0284 93.5485 45.0284C93.4121 45.0284 93.2909 44.9986 93.1848 44.9389C93.0788 44.8783 92.9954 44.7874 92.9348 44.6662C92.8742 44.544 92.8439 44.3902 92.8439 44.2045V42.8182H93.1792V44.1818C93.1792 44.3409 93.2237 44.4678 93.3127 44.5625C93.4026 44.6572 93.5172 44.7045 93.6564 44.7045C93.7398 44.7045 93.8245 44.6832 93.9107 44.6406C93.9978 44.598 94.0707 44.5327 94.1294 44.4446C94.1891 44.3565 94.2189 44.2443 94.2189 44.108ZM95.5034 42.0909V45H95.1681V42.0909H95.5034ZM97.0662 42.8182V43.1023H95.9355V42.8182H97.0662ZM96.2651 42.2955H96.6003V44.375C96.6003 44.4697 96.6141 44.5407 96.6415 44.5881C96.6699 44.6345 96.7059 44.6657 96.7495 44.6818C96.794 44.697 96.8408 44.7045 96.8901 44.7045C96.927 44.7045 96.9573 44.7027 96.981 44.6989C97.0047 44.6941 97.0236 44.6903 97.0378 44.6875L97.106 44.9886C97.0833 44.9972 97.0516 45.0057 97.0108 45.0142C96.9701 45.0237 96.9185 45.0284 96.856 45.0284C96.7613 45.0284 96.6685 45.008 96.5776 44.9673C96.4876 44.9266 96.4128 44.8646 96.3532 44.7812C96.2944 44.6979 96.2651 44.5928 96.2651 44.4659V42.2955ZM97.5705 45V42.8182H97.9057V45H97.5705ZM97.7409 42.4545C97.6756 42.4545 97.6193 42.4323 97.5719 42.3878C97.5255 42.3433 97.5023 42.2898 97.5023 42.2273C97.5023 42.1648 97.5255 42.1113 97.5719 42.0668C97.6193 42.0223 97.6756 42 97.7409 42C97.8063 42 97.8622 42.0223 97.9086 42.0668C97.9559 42.1113 97.9796 42.1648 97.9796 42.2273C97.9796 42.2898 97.9559 42.3433 97.9086 42.3878C97.8622 42.4323 97.8063 42.4545 97.7409 42.4545ZM98.5197 45.8182V42.8182H98.8436V43.1648H98.8833C98.908 43.1269 98.9421 43.0786 98.9856 43.0199C99.0301 42.9602 99.0936 42.9072 99.176 42.8608C99.2593 42.8134 99.372 42.7898 99.514 42.7898C99.6977 42.7898 99.8597 42.8357 99.9998 42.9276C100.14 43.0194 100.249 43.1496 100.328 43.3182C100.407 43.4867 100.446 43.6856 100.446 43.9148C100.446 44.1458 100.407 44.3461 100.328 44.5156C100.249 44.6842 100.14 44.8149 100.001 44.9077C99.862 44.9995 99.7015 45.0455 99.5197 45.0455C99.3796 45.0455 99.2673 45.0223 99.1831 44.9759C99.0988 44.9285 99.0339 44.875 98.9885 44.8153C98.943 44.7547 98.908 44.7045 98.8833 44.6648H98.8549V45.8182H98.5197ZM98.8493 43.9091C98.8493 44.0739 98.8734 44.2192 98.9217 44.3452C98.97 44.4702 99.0405 44.5682 99.1333 44.6392C99.2261 44.7093 99.3398 44.7443 99.4743 44.7443C99.6144 44.7443 99.7314 44.7074 99.8251 44.6335C99.9198 44.5587 99.9908 44.4583 100.038 44.3324C100.086 44.2055 100.111 44.0644 100.111 43.9091C100.111 43.7557 100.087 43.6174 100.04 43.4943C99.9932 43.3703 99.9226 43.2723 99.8279 43.2003C99.7342 43.1274 99.6163 43.0909 99.4743 43.0909C99.3379 43.0909 99.2233 43.1255 99.1305 43.1946C99.0377 43.2628 98.9676 43.3584 98.9203 43.4815C98.8729 43.6037 98.8493 43.7462 98.8493 43.9091ZM101.292 42.0909V45H100.957V42.0909H101.292ZM102.821 45.0455C102.611 45.0455 102.43 44.9991 102.277 44.9062C102.126 44.8125 102.009 44.6818 101.926 44.5142C101.845 44.3456 101.804 44.1496 101.804 43.9261C101.804 43.7027 101.845 43.5057 101.926 43.3352C102.009 43.1638 102.123 43.0303 102.27 42.9347C102.418 42.8381 102.59 42.7898 102.787 42.7898C102.901 42.7898 103.013 42.8087 103.124 42.8466C103.235 42.8845 103.335 42.946 103.426 43.0312C103.517 43.1155 103.59 43.2273 103.644 43.3665C103.698 43.5057 103.725 43.6771 103.725 43.8807V44.0227H102.043V43.733H103.384C103.384 43.6098 103.359 43.5 103.31 43.4034C103.262 43.3068 103.192 43.2306 103.102 43.1747C103.013 43.1188 102.908 43.0909 102.787 43.0909C102.654 43.0909 102.538 43.1241 102.441 43.1903C102.344 43.2557 102.27 43.3409 102.218 43.446C102.165 43.5511 102.139 43.6638 102.139 43.7841V43.9773C102.139 44.142 102.168 44.2817 102.225 44.3963C102.282 44.5099 102.362 44.5966 102.465 44.6562C102.567 44.715 102.686 44.7443 102.821 44.7443C102.909 44.7443 102.989 44.732 103.06 44.7074C103.132 44.6818 103.194 44.6439 103.246 44.5938C103.298 44.5426 103.338 44.4792 103.367 44.4034L103.691 44.4943C103.656 44.6042 103.599 44.7008 103.519 44.7841C103.438 44.8665 103.339 44.9309 103.22 44.9773C103.102 45.0227 102.969 45.0455 102.821 45.0455ZM105.36 45.8182V42.8182H105.683V43.1648H105.723C105.748 43.1269 105.782 43.0786 105.825 43.0199C105.87 42.9602 105.933 42.9072 106.016 42.8608C106.099 42.8134 106.212 42.7898 106.354 42.7898C106.538 42.7898 106.7 42.8357 106.84 42.9276C106.98 43.0194 107.089 43.1496 107.168 43.3182C107.246 43.4867 107.286 43.6856 107.286 43.9148C107.286 44.1458 107.246 44.3461 107.168 44.5156C107.089 44.6842 106.98 44.8149 106.841 44.9077C106.702 44.9995 106.541 45.0455 106.36 45.0455C106.219 45.0455 106.107 45.0223 106.023 44.9759C105.939 44.9285 105.874 44.875 105.828 44.8153C105.783 44.7547 105.748 44.7045 105.723 44.6648H105.695V45.8182H105.36ZM105.689 43.9091C105.689 44.0739 105.713 44.2192 105.762 44.3452C105.81 44.4702 105.88 44.5682 105.973 44.6392C106.066 44.7093 106.18 44.7443 106.314 44.7443C106.454 44.7443 106.571 44.7074 106.665 44.6335C106.76 44.5587 106.831 44.4583 106.878 44.3324C106.926 44.2055 106.95 44.0644 106.95 43.9091C106.95 43.7557 106.927 43.6174 106.879 43.4943C106.833 43.3703 106.762 43.2723 106.668 43.2003C106.574 43.1274 106.456 43.0909 106.314 43.0909C106.178 43.0909 106.063 43.1255 105.97 43.1946C105.878 43.2628 105.807 43.3584 105.76 43.4815C105.713 43.6037 105.689 43.7462 105.689 43.9091ZM108.439 45.0511C108.301 45.0511 108.175 45.0251 108.063 44.973C107.95 44.92 107.86 44.8438 107.794 44.7443C107.728 44.6439 107.695 44.5227 107.695 44.3807C107.695 44.2557 107.719 44.1544 107.769 44.0767C107.818 43.9981 107.884 43.9366 107.966 43.892C108.048 43.8475 108.139 43.8144 108.239 43.7926C108.339 43.7699 108.44 43.7519 108.541 43.7386C108.674 43.7216 108.781 43.7088 108.864 43.7003C108.947 43.6908 109.008 43.6752 109.046 43.6534C109.084 43.6316 109.104 43.5937 109.104 43.5398V43.5284C109.104 43.3883 109.066 43.2794 108.989 43.2017C108.913 43.1241 108.798 43.0852 108.644 43.0852C108.484 43.0852 108.358 43.1203 108.267 43.1903C108.176 43.2604 108.112 43.3352 108.075 43.4148L107.757 43.3011C107.814 43.1686 107.89 43.0653 107.985 42.9915C108.08 42.9167 108.184 42.8646 108.297 42.8352C108.411 42.8049 108.522 42.7898 108.632 42.7898C108.702 42.7898 108.783 42.7983 108.874 42.8153C108.966 42.8314 109.054 42.8651 109.139 42.9162C109.226 42.9673 109.297 43.0445 109.354 43.1477C109.411 43.2509 109.439 43.3892 109.439 43.5625V45H109.104V44.7045H109.087C109.064 44.7519 109.026 44.8026 108.973 44.8565C108.92 44.9105 108.85 44.9564 108.762 44.9943C108.673 45.0322 108.566 45.0511 108.439 45.0511ZM108.49 44.75C108.623 44.75 108.735 44.724 108.825 44.6719C108.917 44.6198 108.986 44.5526 109.033 44.4702C109.08 44.3878 109.104 44.3011 109.104 44.2102V43.9034C109.09 43.9205 109.058 43.9361 109.01 43.9503C108.963 43.9635 108.908 43.9754 108.845 43.9858C108.784 43.9953 108.724 44.0038 108.665 44.0114C108.607 44.018 108.56 44.0237 108.524 44.0284C108.437 44.0398 108.356 44.0582 108.28 44.0838C108.205 44.1084 108.145 44.1458 108.098 44.196C108.053 44.2453 108.03 44.3125 108.03 44.3977C108.03 44.5142 108.073 44.6023 108.159 44.6619C108.246 44.7206 108.357 44.75 108.49 44.75ZM110.386 43.6875V45H110.051V42.8182H110.375V43.1591H110.403C110.454 43.0483 110.532 42.9593 110.636 42.892C110.74 42.8239 110.875 42.7898 111.04 42.7898C111.187 42.7898 111.317 42.8201 111.427 42.8807C111.538 42.9403 111.624 43.0312 111.686 43.1534C111.747 43.2746 111.778 43.428 111.778 43.6136V45H111.443V43.6364C111.443 43.465 111.398 43.3314 111.309 43.2358C111.22 43.1392 111.098 43.0909 110.943 43.0909C110.836 43.0909 110.74 43.1141 110.656 43.1605C110.573 43.2069 110.507 43.2746 110.459 43.3636C110.41 43.4527 110.386 43.5606 110.386 43.6875ZM113.306 45.0455C113.095 45.0455 112.914 44.9991 112.762 44.9062C112.61 44.8125 112.493 44.6818 112.411 44.5142C112.329 44.3456 112.289 44.1496 112.289 43.9261C112.289 43.7027 112.329 43.5057 112.411 43.3352C112.493 43.1638 112.608 43.0303 112.754 42.9347C112.902 42.8381 113.075 42.7898 113.271 42.7898C113.385 42.7898 113.497 42.8087 113.608 42.8466C113.719 42.8845 113.82 42.946 113.911 43.0312C114.002 43.1155 114.074 43.2273 114.128 43.3665C114.182 43.5057 114.209 43.6771 114.209 43.8807V44.0227H112.527V43.733H113.868C113.868 43.6098 113.843 43.5 113.794 43.4034C113.746 43.3068 113.677 43.2306 113.587 43.1747C113.498 43.1188 113.393 43.0909 113.271 43.0909C113.138 43.0909 113.022 43.1241 112.925 43.1903C112.828 43.2557 112.754 43.3409 112.702 43.446C112.65 43.5511 112.624 43.6638 112.624 43.7841V43.9773C112.624 44.142 112.652 44.2817 112.709 44.3963C112.767 44.5099 112.847 44.5966 112.949 44.6562C113.051 44.715 113.17 44.7443 113.306 44.7443C113.394 44.7443 113.473 44.732 113.544 44.7074C113.616 44.6818 113.678 44.6439 113.73 44.5938C113.782 44.5426 113.823 44.4792 113.851 44.4034L114.175 44.4943C114.141 44.6042 114.084 44.7008 114.003 44.7841C113.923 44.8665 113.823 44.9309 113.705 44.9773C113.586 45.0227 113.453 45.0455 113.306 45.0455ZM115.054 42.0909V45H114.719V42.0909H115.054ZM117.214 43.3068L116.912 43.392C116.894 43.3419 116.866 43.2931 116.829 43.2457C116.793 43.1974 116.743 43.1577 116.681 43.1264C116.618 43.0952 116.538 43.0795 116.441 43.0795C116.307 43.0795 116.196 43.1103 116.107 43.1719C116.019 43.2325 115.975 43.3097 115.975 43.4034C115.975 43.4867 116.005 43.5526 116.066 43.6009C116.126 43.6491 116.221 43.6894 116.35 43.7216L116.674 43.8011C116.869 43.8485 117.014 43.9209 117.11 44.0185C117.206 44.1151 117.253 44.2396 117.253 44.392C117.253 44.517 117.217 44.6288 117.145 44.7273C117.074 44.8258 116.975 44.9034 116.847 44.9602C116.719 45.017 116.571 45.0455 116.401 45.0455C116.179 45.0455 115.994 44.9972 115.849 44.9006C115.703 44.804 115.61 44.6629 115.572 44.4773L115.89 44.3977C115.92 44.5152 115.977 44.6032 116.062 44.6619C116.147 44.7206 116.258 44.75 116.395 44.75C116.552 44.75 116.676 44.7169 116.768 44.6506C116.86 44.5833 116.907 44.5028 116.907 44.4091C116.907 44.3333 116.88 44.2699 116.827 44.2188C116.774 44.1667 116.693 44.1278 116.583 44.1023L116.219 44.017C116.019 43.9697 115.873 43.8963 115.779 43.7969C115.686 43.6965 115.64 43.571 115.64 43.4205C115.64 43.2973 115.674 43.1884 115.743 43.0938C115.814 42.9991 115.909 42.9247 116.029 42.8707C116.15 42.8168 116.287 42.7898 116.441 42.7898C116.657 42.7898 116.826 42.8371 116.949 42.9318C117.073 43.0265 117.162 43.1515 117.214 43.3068ZM119.002 43.5455C119.002 43.1875 119.049 42.8584 119.142 42.5582C119.235 42.2571 119.369 41.9801 119.542 41.7273H119.838C119.769 41.821 119.705 41.9366 119.646 42.0739C119.587 42.2102 119.535 42.3603 119.491 42.5241C119.446 42.687 119.411 42.8556 119.386 43.0298C119.361 43.2041 119.349 43.3759 119.349 43.5455C119.349 43.7708 119.371 43.9995 119.414 44.2315C119.458 44.4635 119.517 44.679 119.59 44.8778C119.664 45.0767 119.747 45.2386 119.838 45.3636H119.542C119.369 45.1108 119.235 44.8343 119.142 44.5341C119.049 44.233 119.002 43.9034 119.002 43.5455ZM121.309 45.0398C121.122 45.0398 120.955 45.0076 120.808 44.9432C120.662 44.8788 120.546 44.7893 120.46 44.6747C120.375 44.5592 120.328 44.4252 120.321 44.2727H120.679C120.686 44.3665 120.719 44.4474 120.775 44.5156C120.832 44.5829 120.907 44.6349 120.998 44.6719C121.09 44.7088 121.192 44.7273 121.304 44.7273C121.429 44.7273 121.54 44.7055 121.636 44.6619C121.733 44.6184 121.809 44.5578 121.863 44.4801C121.918 44.4025 121.946 44.3125 121.946 44.2102C121.946 44.1032 121.919 44.009 121.866 43.9276C121.813 43.8452 121.736 43.7808 121.633 43.7344C121.531 43.688 121.406 43.6648 121.258 43.6648H121.025V43.3523H121.258C121.374 43.3523 121.475 43.3314 121.562 43.2898C121.65 43.2481 121.719 43.1894 121.768 43.1136C121.818 43.0379 121.844 42.9489 121.844 42.8466C121.844 42.7481 121.822 42.6624 121.778 42.5895C121.735 42.5166 121.673 42.4598 121.594 42.419C121.515 42.3783 121.422 42.358 121.315 42.358C121.215 42.358 121.12 42.3764 121.031 42.4134C120.943 42.4493 120.871 42.5019 120.815 42.571C120.759 42.6392 120.729 42.7216 120.724 42.8182H120.383C120.389 42.6657 120.435 42.5322 120.521 42.4176C120.607 42.3021 120.72 42.2121 120.859 42.1477C120.999 42.0833 121.153 42.0511 121.321 42.0511C121.501 42.0511 121.655 42.0876 121.784 42.1605C121.913 42.2325 122.012 42.3277 122.081 42.446C122.15 42.5644 122.184 42.6922 122.184 42.8295C122.184 42.9934 122.141 43.133 122.055 43.2486C121.97 43.3641 121.854 43.4441 121.707 43.4886V43.5114C121.891 43.5417 122.034 43.6198 122.138 43.7457C122.241 43.8707 122.292 44.0256 122.292 44.2102C122.292 44.3684 122.249 44.5104 122.163 44.6364C122.078 44.7614 121.961 44.8598 121.814 44.9318C121.666 45.0038 121.498 45.0398 121.309 45.0398ZM123.595 43.5455C123.595 43.9034 123.548 44.233 123.454 44.5341C123.362 44.8343 123.229 45.1108 123.055 45.3636H122.76C122.828 45.2699 122.891 45.1544 122.95 45.017C123.01 44.8807 123.062 44.7311 123.106 44.5682C123.151 44.4044 123.185 44.2353 123.21 44.0611C123.236 43.8859 123.248 43.714 123.248 43.5455C123.248 43.3201 123.227 43.0914 123.183 42.8594C123.14 42.6274 123.081 42.4119 123.007 42.2131C122.933 42.0142 122.851 41.8523 122.76 41.7273H123.055C123.229 41.9801 123.362 42.2571 123.454 42.5582C123.548 42.8584 123.595 43.1875 123.595 43.5455Z" fill="white"/>
<path fill-rule="evenodd" clip-rule="evenodd" d="M85.3445 37.2654C85.5198 37.1426 85.5104 36.8799 85.3266 36.77L81.1804 34.2905C80.9614 34.1595 80.6906 34.3492 80.7388 34.5997L81.6506 39.344C81.691 39.5542 81.9347 39.653 82.1101 39.5302L82.7716 39.067C82.8669 39.0002 82.9142 38.8836 82.8922 38.7693L82.6024 37.2612C82.5542 37.0106 82.825 36.821 83.044 36.952L84.362 37.7401C84.4619 37.7999 84.5876 37.7954 84.683 37.7286L85.3445 37.2654Z" fill="white"/>
<rect x="84.5" y="38.5" width="4" height="2" stroke="white" stroke-dasharray="0.25 0.25"/>
</svg>
