<svg width="163" height="131" viewBox="0 0 163 131" fill="none" xmlns="http://www.w3.org/2000/svg">
<path d="M4 5C4 2.23858 6.23858 0 9 0H154C156.761 0 159 2.23858 159 5V11H4V5Z" fill="#DCDCDC"/>
<rect x="4" y="10" width="155" height="1" fill="#BABABA"/>
<rect x="4" y="11" width="155" height="61" fill="#000C18"/>
<rect x="81" y="73" width="78" height="58" fill="#000C18"/>
<rect x="4" y="73" width="77" height="58" fill="#000C18"/>
<rect x="4" y="72" width="155" height="1" fill="#2B2B4A"/>
<path d="M81 73H80V131H81V73Z" fill="#2B2B4A"/>
<rect x="4" y="11" width="155" height="14" fill="#1C1C2A"/>
<rect x="4" y="11" width="30" height="14" fill="#10192C"/>
<rect x="35" y="11" width="30" height="14" fill="#000C18"/>
<rect x="34" y="11" width="1" height="14" fill="#2B2B4A"/>
<rect x="65" y="11" width="1" height="14" fill="#2B2B4A"/>
<rect x="81" y="73" width="78" height="14" fill="#1C1C2A"/>
<rect x="81" y="73" width="24" height="14" fill="#10192C"/>
<rect x="105" y="73" width="24" height="14" fill="#000C18"/>
<rect x="105" y="73" width="0.503226" height="14" fill="#2B2B4A"/>
<rect x="129" y="73" width="0.503226" height="14" fill="#2B2B4A"/>
<rect x="38" y="16" width="12" height="4" rx="2" fill="#777777"/>
<rect x="107" y="78" width="7" height="4" rx="2" fill="#777777"/>
<rect x="115" y="78" width="11" height="4" rx="2" fill="#777777"/>
<rect x="53" y="16" width="4" height="4" rx="2" fill="#777777"/>
<rect x="7" y="16" width="5" height="4" rx="2" fill="#282828"/>
<rect x="13" y="16" width="16" height="4" rx="2" fill="#282828"/>
<rect x="84" y="78" width="16" height="4" rx="2" fill="#282828"/>
<rect x="8" y="3" width="4" height="4" rx="2" fill="#FD605E"/>
<rect x="14" y="3" width="4" height="4" rx="2" fill="#FBBC3F"/>
<rect x="20" y="3" width="4" height="4" rx="2" fill="#34C942"/>
<rect x="149" y="34" width="10" height="77" fill="#E1E1E1" fill-opacity="0.25"/>
<rect x="4" y="34" width="10" height="77" fill="#E1E1E1" fill-opacity="0.25"/>
<rect x="18" y="11" width="124" height="10" fill="#E1E1E1" fill-opacity="0.25"/>
<rect x="18" y="121" width="124" height="10" fill="#E1E1E1" fill-opacity="0.25"/>
<rect x="90.5" y="112.5" width="29" height="13" fill="#000C18" stroke="#2B2B4A"/>
<rect x="94" y="117" width="7" height="4" rx="2" fill="white"/>
<rect x="105" y="117" width="12" height="4" rx="2" fill="white"/>
<path fill-rule="evenodd" clip-rule="evenodd" d="M107.344 125.265C107.52 125.143 107.51 124.88 107.327 124.77L103.18 122.29C102.961 122.16 102.691 122.349 102.739 122.6L103.651 127.344C103.691 127.554 103.935 127.653 104.11 127.53L104.772 127.067C104.867 127 104.914 126.884 104.892 126.769L104.602 125.261C104.554 125.011 104.825 124.821 105.044 124.952L106.362 125.74C106.462 125.8 106.588 125.795 106.683 125.729L107.344 125.265Z" fill="white"/>
<rect x="106.5" y="126.5" width="4" height="2" stroke="white" stroke-dasharray="0.25 0.25"/>
<rect x="0.5" y="67.5" width="29" height="13" fill="#000C18" stroke="#2B2B4A"/>
<rect x="4" y="72" width="7" height="4" rx="2" fill="white"/>
<rect x="15" y="72" width="12" height="4" rx="2" fill="white"/>
<path fill-rule="evenodd" clip-rule="evenodd" d="M17.3445 80.2654C17.5198 80.1426 17.5104 79.8799 17.3266 79.77L13.1804 77.2905C12.9614 77.1595 12.6906 77.3492 12.7388 77.5997L13.6506 82.344C13.691 82.5542 13.9347 82.653 14.1101 82.5302L14.7716 82.067C14.8669 82.0002 14.9142 81.8836 14.8922 81.7693L14.6024 80.2612C14.5542 80.0106 14.825 79.821 15.044 79.952L16.362 80.7401C16.4619 80.7999 16.5876 80.7954 16.683 80.7286L17.3445 80.2654Z" fill="white"/>
<rect x="16.5" y="81.5" width="4" height="2" stroke="white" stroke-dasharray="0.25 0.25"/>
<rect x="133.5" y="50.5" width="29" height="13" fill="#000C18" stroke="#2B2B4A"/>
<rect x="137" y="55" width="7" height="4" rx="2" fill="white"/>
<rect x="148" y="55" width="12" height="4" rx="2" fill="white"/>
<path fill-rule="evenodd" clip-rule="evenodd" d="M150.344 63.2654C150.52 63.1426 150.51 62.8799 150.327 62.77L146.18 60.2905C145.961 60.1595 145.691 60.3492 145.739 60.5997L146.651 65.344C146.691 65.5542 146.935 65.653 147.11 65.5302L147.772 65.067C147.867 65.0002 147.914 64.8836 147.892 64.7693L147.602 63.2612C147.554 63.0106 147.825 62.821 148.044 62.952L149.362 63.7401C149.462 63.7999 149.588 63.7954 149.683 63.7286L150.344 63.2654Z" fill="white"/>
<rect x="149.5" y="64.5" width="4" height="2" stroke="white" stroke-dasharray="0.25 0.25"/>
<rect x="84.5" y="14.5" width="29" height="13" fill="#000C18" stroke="#2B2B4A"/>
<rect x="88" y="19" width="7" height="4" rx="2" fill="white"/>
<rect x="99" y="19" width="12" height="4" rx="2" fill="white"/>
<path fill-rule="evenodd" clip-rule="evenodd" d="M101.344 27.2654C101.52 27.1426 101.51 26.8799 101.327 26.77L97.1804 24.2905C96.9614 24.1595 96.6906 24.3492 96.7388 24.5997L97.6506 29.344C97.691 29.5542 97.9347 29.653 98.1101 29.5302L98.7716 29.067C98.8669 29.0002 98.9142 28.8836 98.8922 28.7693L98.6024 27.2612C98.5542 27.0106 98.825 26.821 99.044 26.952L100.362 27.7401C100.462 27.7999 100.588 27.7954 100.683 27.7286L101.344 27.2654Z" fill="white"/>
<rect x="100.5" y="28.5" width="4" height="2" stroke="white" stroke-dasharray="0.25 0.25"/>
</svg>
