<svg xmlns="http://www.w3.org/2000/svg" viewBox="0 0 200 200" width="32" height="32" role="img" aria-label="Dockview">
<title>Dockview</title>
<g transform="translate(0.00,0.00) scale(1.0000)"><path d="M28 8 H74 A10 10 0 0 1 84 18 V182 A10 10 0 0 1 74 192 H28 A20 20 0 0 1 8 172 V28 A20 20 0 0 1 28 8 Z" fill="#06C0D6"/><path d="M112 8 H148 A44 44 0 0 1 192 52 V76 A12 12 0 0 1 180 88 H112 A12 12 0 0 1 100 76 V20 A12 12 0 0 1 112 8 Z" fill="#2E74F0"/><rect x="100" y="104" width="40" height="88" rx="12" fill="#F24BA0"/><path d="M164 104 H180 A12 12 0 0 1 192 116 V148 A44 44 0 0 1 148 192 H164 A12 12 0 0 1 152 180 V116 A12 12 0 0 1 164 104 Z" fill="#A24FEE"/></g>
</svg>
