<svg width="156" height="76" viewBox="0 0 156 76" fill="none" xmlns="http://www.w3.org/2000/svg">
<rect y="14" width="156" height="62" fill="#000C18"/>
<rect width="156" height="14" fill="#1C1C2A"/>
<rect width="30" height="14" fill="#10192C"/>
<rect x="31" width="30" height="14" fill="#10192C"/>
<rect x="30" width="1" height="14" fill="#2B2B4A"/>
<rect x="61" width="1" height="14" fill="#2B2B4A"/>
<rect x="41" y="54" width="30" height="14" fill="#000C18"/>
<rect x="33" y="5" width="15" height="4" rx="2" fill="#777777"/>
<rect x="2" y="5" width="6" height="4" rx="2" fill="#777777"/>
<rect x="10" y="5" width="18" height="4" rx="2" fill="#777777"/>
<rect x="68.5" y="7.5" width="83" height="60" fill="#000C18" stroke="#2B2B4A"/>
<rect x="100" y="8" width="51" height="14" fill="#1C1C2A"/>
<rect x="83" y="13" width="12" height="4" rx="2" fill="white"/>
<rect x="73" y="13" width="7" height="4" rx="2" fill="white"/>
<rect x="99" y="8" width="1" height="14" fill="#2B2B4A"/>
<path fill-rule="evenodd" clip-rule="evenodd" d="M70.3445 8.26544C70.5198 8.14263 70.5104 7.87986 70.3266 7.76998L66.1804 5.29049C65.9614 5.15953 65.6906 5.34916 65.7388 5.59974L66.6506 10.344C66.691 10.5542 66.9347 10.653 67.1101 10.5302L67.7716 10.067C67.8669 10.0002 67.9142 9.88362 67.8922 9.76929L67.6024 8.26123C67.5542 8.01064 67.825 7.82101 68.044 7.95197L69.362 8.74015C69.4619 8.79989 69.5876 8.79538 69.683 8.7286L70.3445 8.26544Z" fill="white"/>
<rect x="69.5" y="9.5" width="4" height="2" stroke="white" stroke-dasharray="0.25 0.25"/>
<path d="M70.9414 4.47461V4.81445H68.9922V4.47461H70.9414ZM70.1484 3.64453V5.71484H69.7871V3.64453H70.1484ZM73.9473 5.28125C73.9473 5.21484 73.9368 5.15625 73.916 5.10547C73.8965 5.05339 73.8613 5.00651 73.8105 4.96484C73.7611 4.92318 73.6921 4.88346 73.6035 4.8457C73.5163 4.80794 73.4056 4.76953 73.2715 4.73047C73.1309 4.6888 73.0039 4.64258 72.8906 4.5918C72.7773 4.53971 72.6803 4.48047 72.5996 4.41406C72.5189 4.34766 72.457 4.27148 72.4141 4.18555C72.3711 4.09961 72.3496 4.0013 72.3496 3.89062C72.3496 3.77995 72.3724 3.67773 72.418 3.58398C72.4635 3.49023 72.5286 3.40885 72.6133 3.33984C72.6992 3.26953 72.8014 3.21484 72.9199 3.17578C73.0384 3.13672 73.1706 3.11719 73.3164 3.11719C73.5299 3.11719 73.7109 3.1582 73.8594 3.24023C74.0091 3.32096 74.123 3.42708 74.2012 3.55859C74.2793 3.6888 74.3184 3.82812 74.3184 3.97656H73.9434C73.9434 3.86979 73.9206 3.77539 73.875 3.69336C73.8294 3.61003 73.7604 3.54492 73.668 3.49805C73.5755 3.44987 73.4583 3.42578 73.3164 3.42578C73.1823 3.42578 73.0716 3.44596 72.9844 3.48633C72.8971 3.52669 72.832 3.58138 72.7891 3.65039C72.7474 3.7194 72.7266 3.79818 72.7266 3.88672C72.7266 3.94661 72.7389 4.0013 72.7637 4.05078C72.7897 4.09896 72.8294 4.14388 72.8828 4.18555C72.9375 4.22721 73.0065 4.26562 73.0898 4.30078C73.1745 4.33594 73.2754 4.36979 73.3926 4.40234C73.554 4.44792 73.6934 4.4987 73.8105 4.55469C73.9277 4.61068 74.0241 4.67383 74.0996 4.74414C74.1764 4.81315 74.2331 4.89193 74.2695 4.98047C74.3073 5.06771 74.3262 5.16667 74.3262 5.27734C74.3262 5.39323 74.3027 5.49805 74.2559 5.5918C74.209 5.68555 74.1419 5.76562 74.0547 5.83203C73.9674 5.89844 73.8626 5.94987 73.7402 5.98633C73.6191 6.02148 73.4837 6.03906 73.334 6.03906C73.2025 6.03906 73.0729 6.02083 72.9453 5.98438C72.819 5.94792 72.7038 5.89323 72.5996 5.82031C72.4967 5.7474 72.4141 5.65755 72.3516 5.55078C72.2904 5.44271 72.2598 5.31771 72.2598 5.17578H72.6348C72.6348 5.27344 72.6536 5.35742 72.6914 5.42773C72.7292 5.49674 72.7806 5.55404 72.8457 5.59961C72.9121 5.64518 72.987 5.67904 73.0703 5.70117C73.1549 5.72201 73.2428 5.73242 73.334 5.73242C73.4655 5.73242 73.5768 5.71419 73.668 5.67773C73.7591 5.64128 73.8281 5.58919 73.875 5.52148C73.9232 5.45378 73.9473 5.3737 73.9473 5.28125ZM76.6641 4.37891V4.68555H75.125V4.37891H76.6641ZM75.1836 3.15625V6H74.8066V3.15625H75.1836ZM76.9922 3.15625V6H76.6172V3.15625H76.9922ZM78.0664 3.15625V6H77.6895V3.15625H78.0664ZM79.1289 3.15625V6H78.752V3.15625H79.1289ZM80.3203 4.43555V4.74414H79.0469V4.43555H80.3203ZM80.5137 3.15625V3.46484H79.0469V3.15625H80.5137ZM82.0527 3.15625V6H81.6816V3.15625H82.0527ZM82.9668 3.15625V3.46484H80.7695V3.15625H82.9668ZM84.6797 3.15625V6H84.3027V3.15625H84.6797ZM86.3965 3.15625L85.2148 4.48242L84.5508 5.17188L84.4883 4.76953L84.9883 4.21875L85.9434 3.15625H86.3965ZM86.0332 6L84.9805 4.61328L85.2051 4.31445L86.4824 6H86.0332ZM88.6211 5.69336V6H87.1152V5.69336H88.6211ZM87.1914 3.15625V6H86.8145V3.15625H87.1914ZM88.4219 4.37891V4.68555H87.1152V4.37891H88.4219ZM88.6016 3.15625V3.46484H87.1152V3.15625H88.6016ZM89.2188 3.15625L89.957 4.58398L90.6973 3.15625H91.125L90.1445 4.9375V6H89.7676V4.9375L88.7871 3.15625H89.2188Z" fill="white"/>
</svg>
